<svg version="1.1" viewBox="0.0 0.0 1038.002624671916 325.5826771653543" fill="none" stroke="none" stroke-linecap="square" stroke-miterlimit="10" xmlns:xlink="http://www.w3.org/1999/xlink" xmlns="http://www.w3.org/2000/svg"><clipPath id="p.0"><path d="m0 0l1038.0027 0l0 325.58267l-1038.0027 0l0 -325.58267z" clip-rule="nonzero"/></clipPath><g clip-path="url(#p.0)"><path fill="#000000" fill-opacity="0.0" d="m0 0l1038.0027 0l0 325.58267l-1038.0027 0z" fill-rule="evenodd"/><path fill="#f4cccc" d="m7.4488187 86.99148l146.29921 0l0 103.99999l-146.29921 0z" fill-rule="evenodd"/><path stroke="#000000" stroke-width="1.0" stroke-linejoin="round" stroke-linecap="butt" d="m7.4488187 86.99148l146.29921 0l0 103.99999l-146.29921 0z" fill-rule="evenodd"/><path fill="#000000" d="m73.935745 141.22397l1.765625 0.453125q-0.5625 2.171875 -2.0 3.328125q-1.4375 1.140625 -3.53125 1.140625q-2.15625 0 -3.515625 -0.875q-1.34375 -0.890625 -2.0625 -2.546875q-0.7031288 -1.671875 -0.7031288 -3.59375q0 -2.078125 0.7968788 -3.625q0.796875 -1.5625 2.265625 -2.359375q1.484375 -0.8125 3.25 -0.8125q2.0 0 3.359375 1.015625q1.375 1.015625 1.90625 2.875l-1.734375 0.40625q-0.46875 -1.453125 -1.359375 -2.109375q-0.875 -0.671875 -2.203125 -0.671875q-1.546875 0 -2.578125 0.734375q-1.03125 0.734375 -1.453125 1.984375q-0.421875 1.234375 -0.421875 2.5625q0 1.703125 0.5 2.96875q0.5 1.265625 1.546875 1.90625q1.046875 0.625 2.265625 0.625q1.484375 0 2.515625 -0.859375q1.03125 -0.859375 1.390625 -2.546875zm7.176071 2.53125l0 -3.671875l-3.640625 0l0 -1.515625l3.640625 0l0 -3.640625l1.546875 0l0 3.640625l3.640625 0l0 1.515625l-3.640625 0l0 3.671875l-1.546875 0zm10.8949585 0l0 -3.671875l-3.640625 0l0 -1.515625l3.640625 0l0 -3.640625l1.546875 0l0 3.640625l3.640625 0l0 1.515625l-3.640625 0l0 3.671875l-1.546875 0z" fill-rule="nonzero"/><path fill="#f4cccc" d="m423.644 86.973755l146.29922 0l0 104.0l-146.29922 0z" fill-rule="evenodd"/><path stroke="#000000" stroke-width="1.0" stroke-linejoin="round" stroke-linecap="butt" d="m423.644 86.973755l146.29922 0l0 104.0l-146.29922 0z" fill-rule="evenodd"/><path fill="#000000" d="m490.13092 141.20625l1.765625 0.453125q-0.5625 2.171875 -2.0 3.328125q-1.4375 1.140625 -3.53125 1.140625q-2.15625 0 -3.515625 -0.875q-1.34375 -0.890625 -2.0625 -2.546875q-0.703125 -1.671875 -0.703125 -3.59375q0 -2.078125 0.796875 -3.625q0.796875 -1.5625 2.265625 -2.359375q1.484375 -0.8125 3.25 -0.8125q2.0 0 3.359375 1.015625q1.375 1.015625 1.90625 2.875l-1.734375 0.40625q-0.46875 -1.453125 -1.359375 -2.109375q-0.875 -0.671875 -2.203125 -0.671875q-1.546875 0 -2.578125 0.734375q-1.03125 0.734375 -1.453125 1.984375q-0.421875 1.234375 -0.421875 2.5625q0 1.703125 0.5 2.96875q0.5 1.265625 1.546875 1.90625q1.046875 0.625 2.265625 0.625q1.484375 0 2.515625 -0.859375q1.03125 -0.859375 1.390625 -2.546875zm7.1760864 2.53125l0 -3.671875l-3.640625 0l0 -1.515625l3.640625 0l0 -3.640625l1.546875 0l0 3.640625l3.640625 0l0 1.515625l-3.640625 0l0 3.671875l-1.546875 0zm10.8949585 0l0 -3.671875l-3.640625 0l0 -1.515625l3.640625 0l0 -3.640625l1.546875 0l0 3.640625l3.640625 0l0 1.515625l-3.640625 0l0 3.671875l-1.546875 0z" fill-rule="nonzero"/><path fill="#f4cccc" d="m845.716 86.99148l146.2992 0l0 103.99999l-146.2992 0z" fill-rule="evenodd"/><path stroke="#000000" stroke-width="1.0" stroke-linejoin="round" stroke-linecap="butt" d="m845.716 86.99148l146.2992 0l0 103.99999l-146.2992 0z" fill-rule="evenodd"/><path fill="#000000" d="m912.20294 141.22397l1.765625 0.453125q-0.5625 2.171875 -2.0 3.328125q-1.4375 1.140625 -3.53125 1.140625q-2.15625 0 -3.515625 -0.875q-1.34375 -0.890625 -2.0625 -2.546875q-0.703125 -1.671875 -0.703125 -3.59375q0 -2.078125 0.796875 -3.625q0.796875 -1.5625 2.265625 -2.359375q1.484375 -0.8125 3.25 -0.8125q2.0 0 3.359375 1.015625q1.375 1.015625 1.90625 2.875l-1.734375 0.40625q-0.46875 -1.453125 -1.359375 -2.109375q-0.875 -0.671875 -2.203125 -0.671875q-1.546875 0 -2.578125 0.734375q-1.03125 0.734375 -1.453125 1.984375q-0.421875 1.234375 -0.421875 2.5625q0 1.703125 0.5 2.96875q0.5 1.265625 1.546875 1.90625q1.046875 0.625 2.265625 0.625q1.484375 0 2.515625 -0.859375q1.03125 -0.859375 1.390625 -2.546875zm7.1760254 2.53125l0 -3.671875l-3.640625 0l0 -1.515625l3.640625 0l0 -3.640625l1.546875 0l0 3.640625l3.640625 0l0 1.515625l-3.640625 0l0 3.671875l-1.546875 0zm10.8949585 0l0 -3.671875l-3.640625 0l0 -1.515625l3.640625 0l0 -3.640625l1.546875 0l0 3.640625l3.640625 0l0 1.515625l-3.640625 0l0 3.671875l-1.546875 0z" fill-rule="nonzero"/><path fill="#000000" fill-opacity="0.0" d="m816.6011 265.0l1.6062622 -74.17323" fill-rule="evenodd"/><path stroke="#000000" stroke-width="2.0" stroke-linejoin="round" stroke-linecap="butt" d="m816.6011 265.0l1.3464355 -62.17604" fill-rule="evenodd"/><path fill="#000000" stroke="#000000" stroke-width="2.0" stroke-linecap="butt" d="m821.25024 202.89548l-3.1062012 -9.145584l-3.4992065 9.002548z" fill-rule="evenodd"/><path fill="#000000" fill-opacity="0.0" d="m597.35693 265.0l0.15753174 -74.17323" fill-rule="evenodd"/><path stroke="#000000" stroke-width="2.0" stroke-linejoin="round" stroke-linecap="butt" d="m597.35693 265.0l0.13201904 -62.17325" fill-rule="evenodd"/><path fill="#000000" stroke="#000000" stroke-width="2.0" stroke-linecap="butt" d="m600.7924 202.83376l-3.2841797 -9.083191l-3.322754 9.069168z" fill-rule="evenodd"/><path fill="#ffe599" d="m625.10535 87.14034l0 103.685036l-55.18109 0l0 -103.685036z" fill-rule="evenodd"/><path stroke="#000000" stroke-width="1.0" stroke-linejoin="round" stroke-linecap="butt" d="m625.10535 87.14034l0 103.685036l-55.18109 0l0 -103.685036z" fill-rule="evenodd"/><path fill="#000000" d="m590.59485 108.46897l13.359375 -5.171875l0 1.921875l-9.703125 3.46875q-1.171875 0.421875 -2.1875 0.703125q1.09375 0.3125 2.1875 0.71875l9.703125 3.609375l0 1.796875l-13.359375 -5.234375l0 -1.8125zm0 8.584198l13.359375 0l0 2.65625l-9.453125 3.15625q-1.328125 0.4375 -1.984375 0.640625q0.734375 0.234375 2.140625 0.703125l9.296875 3.203125l0 2.3750076l-13.359375 0l0 -1.703125l11.171875 0l-11.171875 -3.8750076l0 -1.59375l11.375 -3.859375l-11.375 0l0 -1.703125zm0 15.618935l13.359375 0l0 9.65625l-1.578125 0l0 -7.875l-4.09375 0l0 7.375l-1.5625 0l0 -7.375l-4.546875 0l0 8.1875l-1.578125 0l0 -9.96875zm0 12.209198l9.671875 0l0 1.46875l-1.375 0q1.59375 1.0625 1.59375 3.078125q0 0.875 -0.3125 1.609375q-0.3125 0.73435974 -0.828125 1.0937347q-0.5 0.375 -1.203125 0.515625q-0.453125 0.09375 -1.59375 0.09375l-5.953125 0l0 -1.6406097l5.890625 0q1.0 0 1.484375 -0.203125q0.5 -0.1875 0.796875 -0.671875q0.296875 -0.484375 0.296875 -1.140625q0 -1.046875 -0.671875 -1.8125q-0.65625 -0.75 -2.515625 -0.75l-5.28125 0l0 -1.640625zm1.46875 13.953827l-1.453125 0.234375q-0.140625 -0.6875 -0.140625 -1.234375q0 -0.890625 0.28125 -1.390625q0.28125 -0.484375 0.734375 -0.6875q0.46875 -0.203125 1.9375 -0.203125l5.578125 0l0 -1.203125l1.265625 0l0 1.203125l2.390625 0l0.984375 1.625l-3.375 0l0 1.65625l-1.265625 0l0 -1.65625l-5.671875 0q-0.6875 0 -0.890625 0.078125q-0.203125 0.09375 -0.328125 0.28125q-0.109375 0.203125 -0.109375 0.578125q0 0.265625 0.0625 0.71875zm-1.46875 1.5895538l9.671875 0l0 1.46875l-1.46875 0q1.03125 0.5625 1.359375 1.03125q0.328125 0.484375 0.328125 1.0625q0 0.828125 -0.53125 1.6875l-1.515625 -0.5625q0.359375 -0.609375 0.359375 -1.203125q0 -0.546875 -0.328125 -0.96875q-0.328125 -0.421875 -0.890625 -0.609375q-0.875 -0.28125 -1.921875 -0.28125l-5.0625 0l0 -1.625zm-3.71875 6.150177l1.53125 -0.1875q-0.140625 0.546875 -0.140625 0.9375q0 0.546875 0.1875 0.875q0.171875 0.328125 0.5 0.546875q0.25 0.15625 1.21875 0.5q0.140625 0.046875 0.40625 0.140625l9.6875 -3.671875l0 1.765625l-5.59375 2.015625q-1.078125 0.390625 -2.25 0.703125q1.125 0.28125 2.203125 0.671875l5.640625 2.078125l0 1.640625l-9.828125 -3.6875q-1.609375 -0.59375 -2.203125 -0.921875q-0.8125 -0.4375 -1.1875 -1.0q-0.375 -0.5625 -0.375 -1.34375q0 -0.484375 0.203125 -1.0625z" fill-rule="nonzero"/><path fill="#000000" fill-opacity="0.0" d="m955.3779 265.0l70.99219 0l0 41.448822l-70.99219 0z" fill-rule="evenodd"/><path fill="#000000" d="m988.7622 289.91003q0 0.71875 -0.265625 1.265625q-0.25 0.546875 -0.75 0.921875q-0.5 0.359375 -1.203125 0.546875q-0.703125 0.1875 -1.578125 0.1875q-0.984375 0 -1.703125 -0.171875q-0.703125 -0.15625 -1.25 -0.46875l0 -1.5q0.296875 0.140625 0.640625 0.28125q0.34375 0.140625 0.71875 0.25q0.390625 0.109375 0.796875 0.1875q0.40625 0.0625 0.796875 0.0625q0.59375 0 1.0 -0.09375q0.421875 -0.109375 0.6875 -0.296875q0.265625 -0.1875 0.375 -0.453125q0.125 -0.265625 0.125 -0.59375q0 -0.28125 -0.09375 -0.515625q-0.09375 -0.234375 -0.34375 -0.453125q-0.234375 -0.21875 -0.65625 -0.4375q-0.40625 -0.234375 -1.0625 -0.515625q-0.65625 -0.28125 -1.1875 -0.546875q-0.515625 -0.28125 -0.890625 -0.625q-0.359375 -0.34375 -0.5625 -0.78125q-0.1875 -0.4375 -0.1875 -1.046875q0 -0.640625 0.25 -1.140625q0.25 -0.5 0.703125 -0.828125q0.453125 -0.34375 1.09375 -0.515625q0.640625 -0.171875 1.421875 -0.171875q0.875 0 1.609375 0.203125q0.734375 0.1875 1.390625 0.5l-0.5625 1.328125q-0.59375 -0.265625 -1.21875 -0.453125q-0.625 -0.203125 -1.28125 -0.203125q-0.921875 0 -1.375 0.3125q-0.4375 0.296875 -0.4375 0.859375q0 0.328125 0.09375 0.5625q0.109375 0.234375 0.359375 0.453125q0.265625 0.203125 0.6875 0.421875q0.4375 0.203125 1.0625 0.46875q0.65625 0.28125 1.171875 0.5625q0.515625 0.265625 0.875 0.609375q0.375 0.328125 0.5625 0.765625q0.1875 0.4375 0.1875 1.0625zm6.9640503 2.921875q-0.546875 0 -0.984375 -0.125q-0.4375 -0.109375 -0.796875 -0.3125q-0.34375 -0.203125 -0.609375 -0.453125q-0.265625 -0.265625 -0.46875 -0.5625l-0.109375 0q0.015625 0.3125 0.046875 0.59375q0.015625 0.234375 0.03125 0.484375q0.03125 0.25 0.03125 0.390625l0 4.28125l-1.671875 0l0 -14.484375l1.359375 0l0.234375 1.34375l0.078125 0q0.203125 -0.3125 0.46875 -0.59375q0.265625 -0.28125 0.609375 -0.484375q0.359375 -0.203125 0.796875 -0.328125q0.4375 -0.125 0.984375 -0.125q0.84375 0 1.546875 0.328125q0.703125 0.328125 1.203125 0.984375q0.5 0.65625 0.765625 1.625q0.28125 0.953125 0.28125 2.234375q0 1.28125 -0.28125 2.25q-0.265625 0.96875 -0.765625 1.625q-0.5 0.65625 -1.203125 1.0q-0.703125 0.328125 -1.546875 0.328125zm-0.328125 -9.0q-0.6875 0 -1.171875 0.21875q-0.46875 0.203125 -0.765625 0.640625q-0.296875 0.421875 -0.4375 1.0625q-0.140625 0.625 -0.15625 1.5l0 0.375q0 0.921875 0.109375 1.640625q0.125 0.703125 0.421875 1.203125q0.296875 0.484375 0.78125 0.734375q0.5 0.25 1.234375 0.25q1.234375 0 1.8125 -0.984375q0.578125 -1.0 0.578125 -2.859375q0 -1.90625 -0.578125 -2.84375q-0.578125 -0.9375 -1.828125 -0.9375z" fill-rule="nonzero"/><path fill="#000000" fill-opacity="0.0" d="m990.874 265.0l-0.5039673 -74.4252" fill-rule="evenodd"/><path stroke="#000000" stroke-width="2.0" stroke-linejoin="round" stroke-linecap="butt" d="m990.874 265.0l-0.42266846 -62.42546" fill-rule="evenodd"/><path fill="#000000" stroke="#000000" stroke-width="2.0" stroke-linecap="butt" d="m993.7547 202.55215l-3.3648071 -9.053619l-3.2419434 9.098358z" fill-rule="evenodd"/><path fill="#ffe599" d="m845.7968 87.14034l0 103.685036l-55.18109 0l0 -103.685036z" fill-rule="evenodd"/><path stroke="#000000" stroke-width="1.0" stroke-linejoin="round" stroke-linecap="butt" d="m845.7968 87.14034l0 103.685036l-55.18109 0l0 -103.685036z" fill-rule="evenodd"/><path fill="#000000" d="m811.28625 113.96442l13.359375 0l0 1.8125l-10.484375 7.015625l10.484375 0l0 1.6875l-13.359375 0l0 -1.8125l10.5 -7.015625l-10.5 0l0 -1.6875zm1.1875 19.597946q-0.765625 -0.921875 -1.09375 -1.765625q-0.3125 -0.828125 -0.3125 -1.796875q0 -1.59375 0.78125 -2.453125q0.78125 -0.859375 1.984375 -0.859375q0.71875 0 1.296875 0.328125q0.59375 0.328125 0.9375 0.84375q0.359375 0.53125 0.546875 1.1875q0.125 0.46875 0.25 1.453125q0.234375 1.984375 0.5625 2.921875q0.34375 0.015625 0.421875 0.015625q1.0 0 1.421875 -0.46875q0.546875 -0.625 0.546875 -1.875q0 -1.15625 -0.40625 -1.703125q-0.40625 -0.546875 -1.421875 -0.8125l0.21875 -1.609375q1.015625 0.21875 1.640625 0.71875q0.640625 0.5 0.984375 1.453125q0.34375 0.953125 0.34375 2.1875q0 1.25 -0.296875 2.015625q-0.28125 0.78125 -0.734375 1.140625q-0.4375 0.375 -1.109375 0.515625q-0.421875 0.078125 -1.515625 0.078125l-2.1875 0q-2.28125 0 -2.890625 0.109375q-0.59375 0.109375 -1.15625 0.40625l0 -1.703125q0.515625 -0.265625 1.1875 -0.328125zm3.671875 -0.140625q-0.375 -0.890625 -0.625 -2.671875q-0.140625 -1.015625 -0.328125 -1.4375q-0.1875 -0.421875 -0.53125 -0.65625q-0.34375 -0.21875 -0.78125 -0.21875q-0.65625 0 -1.09375 0.5q-0.4375 0.5 -0.4375 1.453125q0 0.9375 0.40625 1.671875q0.421875 0.75 1.140625 1.09375q0.5625 0.265625 1.640625 0.265625l0.609375 0zm-3.390625 7.781967l-1.453125 0.234375q-0.140625 -0.6875 -0.140625 -1.234375q0 -0.890625 0.28125 -1.390625q0.28125 -0.484375 0.734375 -0.6875q0.46875 -0.203125 1.9375 -0.203125l5.578125 0l0 -1.203125l1.265625 0l0 1.203125l2.390625 0l0.984375 1.625l-3.375 0l0 1.65625l-1.265625 0l0 -1.65625l-5.671875 0q-0.6875 0 -0.890625 0.078125q-0.203125 0.09375 -0.328125 0.28125q-0.109375 0.203125 -0.109375 0.578125q0 0.265625 0.0625 0.71875zm10.0 1.6051788l1.890625 0l0 1.640625l-1.890625 0l0 -1.640625zm-11.46875 0l9.671875 0l0 1.640625l-9.671875 0l0 -1.640625zm0 6.832321l9.671875 -3.6875l0 1.734375l-5.796875 2.078125q-0.9375 0.328125 -1.9375 0.625q0.765625 0.203125 1.828125 0.609375l5.90625 2.140625l0 1.6875l-9.671875 -3.65625l0 -1.53125zm3.109375 13.265625l-0.203125 1.6875q-1.484375 -0.40625 -2.3125 -1.484375q-0.8125 -1.078125 -0.8125 -2.765625q0 -2.125 1.296875 -3.375q1.3125 -1.234375 3.671875 -1.234375q2.453125 0 3.796875 1.25q1.34375 1.265625 1.34375 3.265625q0 1.9375 -1.328125 3.15625q-1.3125 1.234375 -3.703125 1.234375q-0.15625 0 -0.4375 0l0 -7.21875q-1.59375 0.09375 -2.453125 0.90625q-0.84375 0.8125 -0.84375 2.015625q0 0.90625 0.46875 1.546875q0.484375 0.640625 1.515625 1.015625zm2.65625 -5.390625l0 5.40625q1.21875 -0.109375 1.828125 -0.625q0.953125 -0.78125 0.953125 -2.03125q0 -1.125 -0.765625 -1.90625q-0.75 -0.765625 -2.015625 -0.84375z" fill-rule="nonzero"/><path fill="#ffe599" d="m429.52756 87.12262l0 103.68504l-55.18112 0l0 -103.68504z" fill-rule="evenodd"/><path stroke="#000000" stroke-width="1.0" stroke-linejoin="round" stroke-linecap="butt" d="m429.52756 87.12262l0 103.68504l-55.18112 0l0 -103.68504z" fill-rule="evenodd"/><path fill="#000000" d="m395.017 113.94669l13.359375 0l0 1.8125l-10.484375 7.015625l10.484375 0l0 1.6875l-13.359375 0l0 -1.8125l10.5 -7.015625l-10.5 0l0 -1.6875zm1.1875 19.597954q-0.765625 -0.921875 -1.09375 -1.765625q-0.3125 -0.828125 -0.3125 -1.796875q0 -1.59375 0.78125 -2.4531326q0.78125 -0.859375 1.984375 -0.859375q0.71875 0 1.296875 0.328125q0.59375 0.328125 0.9375 0.84375q0.359375 0.5312576 0.546875 1.1875076q0.125 0.46875 0.25 1.453125q0.234375 1.984375 0.5625 2.921875q0.34375 0.015625 0.421875 0.015625q1.0 0 1.421875 -0.46875q0.546875 -0.625 0.546875 -1.875q0 -1.15625 -0.40625 -1.703125q-0.40625 -0.546875 -1.421875 -0.8125l0.21875 -1.6093826q1.015625 0.21875 1.640625 0.71875q0.640625 0.5000076 0.984375 1.4531326q0.34375 0.953125 0.34375 2.1875q0 1.25 -0.296875 2.015625q-0.28125 0.78125 -0.734375 1.140625q-0.4375 0.375 -1.109375 0.515625q-0.421875 0.078125 -1.515625 0.078125l-2.1875 0q-2.28125 0 -2.890625 0.109375q-0.59375 0.109375 -1.15625 0.40625l0 -1.703125q0.515625 -0.265625 1.1875 -0.328125zm3.671875 -0.140625q-0.375 -0.890625 -0.625 -2.671875q-0.140625 -1.015625 -0.328125 -1.4375q-0.1875 -0.421875 -0.53125 -0.65625q-0.34375 -0.21875 -0.78125 -0.21875q-0.65625 0 -1.09375 0.5q-0.4375 0.5 -0.4375 1.453125q0 0.9375 0.40625 1.671875q0.421875 0.75 1.140625 1.09375q0.5625 0.265625 1.640625 0.265625l0.609375 0zm-3.390625 7.781967l-1.453125 0.234375q-0.140625 -0.6875 -0.140625 -1.234375q0 -0.890625 0.28125 -1.390625q0.28125 -0.484375 0.734375 -0.6875q0.46875 -0.203125 1.9375 -0.203125l5.578125 0l0 -1.203125l1.265625 0l0 1.203125l2.390625 0l0.984375 1.625l-3.375 0l0 1.65625l-1.265625 0l0 -1.65625l-5.671875 0q-0.6875 0 -0.890625 0.078125q-0.203125 0.09375 -0.328125 0.28125q-0.109375 0.203125 -0.109375 0.578125q0 0.265625 0.0625 0.71875zm10.0 1.6051788l1.890625 0l0 1.640625l-1.890625 0l0 -1.640625zm-11.46875 0l9.671875 0l0 1.640625l-9.671875 0l0 -1.640625zm0 6.832321l9.671875 -3.6875l0 1.734375l-5.796875 2.078125q-0.9375 0.328125 -1.9375 0.625q0.765625 0.203125 1.828125 0.609375l5.90625 2.140625l0 1.6875l-9.671875 -3.65625l0 -1.53125zm3.109375 13.265625l-0.203125 1.6875q-1.484375 -0.40625 -2.3125 -1.484375q-0.8125 -1.078125 -0.8125 -2.765625q0 -2.125 1.296875 -3.375q1.3125 -1.234375 3.671875 -1.234375q2.453125 0 3.796875 1.25q1.34375 1.265625 1.34375 3.265625q0 1.9375 -1.328125 3.15625q-1.3125 1.234375 -3.703125 1.234375q-0.15625 0 -0.4375 0l0 -7.21875q-1.59375 0.09375 -2.453125 0.90625q-0.84375 0.8125 -0.84375 2.015625q0 0.90625 0.46875 1.546875q0.484375 0.640625 1.515625 1.015625zm2.65625 -5.390625l0 5.40625q1.21875 -0.109375 1.828125 -0.625q0.953125 -0.78125 0.953125 -2.03125q0 -1.125 -0.765625 -1.90625q-0.75 -0.765625 -2.015625 -0.84375z" fill-rule="nonzero"/><path fill="#ffe599" d="m208.86977 87.14034l0 103.685036l-55.181107 0l0 -103.685036z" fill-rule="evenodd"/><path stroke="#000000" stroke-width="1.0" stroke-linejoin="round" stroke-linecap="butt" d="m208.86977 87.14034l0 103.685036l-55.181107 0l0 -103.685036z" fill-rule="evenodd"/><path fill="#000000" d="m174.3592 108.46897l13.359375 -5.171875l0 1.921875l-9.703125 3.46875q-1.171875 0.421875 -2.1875 0.703125q1.09375 0.3125 2.1875 0.71875l9.703125 3.609375l0 1.796875l-13.359375 -5.234375l0 -1.8125zm0 8.584198l13.359375 0l0 2.65625l-9.453125 3.15625q-1.328125 0.4375 -1.984375 0.640625q0.734375 0.234375 2.140625 0.703125l9.296875 3.203125l0 2.3750076l-13.359375 0l0 -1.703125l11.171875 0l-11.171875 -3.8750076l0 -1.59375l11.375 -3.859375l-11.375 0l0 -1.703125zm0 15.618935l13.359375 0l0 9.65625l-1.578125 0l0 -7.875l-4.09375 0l0 7.375l-1.5625 0l0 -7.375l-4.546875 0l0 8.1875l-1.578125 0l0 -9.96875zm0 12.209198l9.671875 0l0 1.46875l-1.375 0q1.59375 1.0625 1.59375 3.078125q0 0.875 -0.3125 1.609375q-0.3125 0.73435974 -0.828125 1.0937347q-0.5 0.375 -1.203125 0.515625q-0.453125 0.09375 -1.59375 0.09375l-5.953125 0l0 -1.6406097l5.890625 0q1.0 0 1.484375 -0.203125q0.5 -0.1875 0.796875 -0.671875q0.296875 -0.484375 0.296875 -1.140625q0 -1.046875 -0.671875 -1.8125q-0.65625 -0.75 -2.515625 -0.75l-5.28125 0l0 -1.640625zm1.46875 13.953827l-1.453125 0.234375q-0.140625 -0.6875 -0.140625 -1.234375q0 -0.890625 0.28125 -1.390625q0.28125 -0.484375 0.734375 -0.6875q0.46875 -0.203125 1.9375 -0.203125l5.578125 0l0 -1.203125l1.265625 0l0 1.203125l2.390625 0l0.984375 1.625l-3.375 0l0 1.65625l-1.265625 0l0 -1.65625l-5.671875 0q-0.6875 0 -0.890625 0.078125q-0.203125 0.09375 -0.328125 0.28125q-0.109375 0.203125 -0.109375 0.578125q0 0.265625 0.0625 0.71875zm-1.46875 1.5895538l9.671875 0l0 1.46875l-1.46875 0q1.03125 0.5625 1.359375 1.03125q0.328125 0.484375 0.328125 1.0625q0 0.828125 -0.53125 1.6875l-1.515625 -0.5625q0.359375 -0.609375 0.359375 -1.203125q0 -0.546875 -0.328125 -0.96875q-0.328125 -0.421875 -0.890625 -0.609375q-0.875 -0.28125 -1.921875 -0.28125l-5.0625 0l0 -1.625zm-3.71875 6.150177l1.53125 -0.1875q-0.140625 0.546875 -0.140625 0.9375q0 0.546875 0.1875 0.875q0.171875 0.328125 0.5 0.546875q0.25 0.15625 1.21875 0.5q0.140625 0.046875 0.40625 0.140625l9.6875 -3.671875l0 1.765625l-5.59375 2.015625q-1.078125 0.390625 -2.25 0.703125q1.125 0.28125 2.203125 0.671875l5.640625 2.078125l0 1.640625l-9.828125 -3.6875q-1.609375 -0.59375 -2.203125 -0.921875q-0.8125 -0.4375 -1.1875 -1.0q-0.375 -0.5625 -0.375 -1.34375q0 -0.484375 0.203125 -1.0625z" fill-rule="nonzero"/><path fill="#000000" fill-opacity="0.0" d="m597.51483 87.14034l0 -25.017727l-195.59058 0l0 25.080715" fill-rule="evenodd"/><path stroke="#000000" stroke-width="2.0" stroke-linejoin="round" stroke-linecap="butt" d="m597.51483 87.140335l0 -25.01772l-195.59058 0l0 18.226543" fill-rule="evenodd"/><path fill="#000000" stroke="#000000" stroke-width="2.0" stroke-linecap="butt" d="m401.92426 80.34916l-2.249176 -2.2491684l2.249176 6.179535l2.249176 -6.179535z" fill-rule="evenodd"/><path fill="#000000" fill-opacity="0.0" d="m597.51483 87.14034l0 -25.000004l-416.2205 0l0 25.062992" fill-rule="evenodd"/><path stroke="#000000" stroke-width="2.0" stroke-linejoin="round" stroke-linecap="butt" d="m597.51483 87.140335l0 -24.999996l-416.22046 0l0 18.20882" fill-rule="evenodd"/><path fill="#000000" stroke="#000000" stroke-width="2.0" stroke-linecap="butt" d="m181.29436 80.34916l-2.249176 -2.2491684l2.249176 6.179535l2.2491608 -6.179535z" fill-rule="evenodd"/><path fill="#f4cccc" d="m264.0342 87.14034l0 103.685036l-55.181107 0l0 -103.685036z" fill-rule="evenodd"/><path stroke="#000000" stroke-width="1.0" stroke-linejoin="round" stroke-linecap="butt" d="m264.0342 87.14034l0 103.685036l-55.181107 0l0 -103.685036z" fill-rule="evenodd"/><path fill="#000000" d="m233.32054 102.1925l0.21875 1.59375q-1.53125 0.078125 -2.109375 0.578125q-0.5625 0.515625 -0.5625 1.421875q0 0.65625 0.296875 1.140625q0.3125 0.484375 0.828125 0.65625q0.53125 0.1875 1.6875 0.1875l9.203125 0l0 1.765625l-9.109375 0q-1.671875 0 -2.59375 -0.40625q-0.921875 -0.40625 -1.40625 -1.28125q-0.484375 -0.875 -0.484375 -2.0625q0 -1.75 1.015625 -2.6875q1.015625 -0.9375 3.015625 -0.90625zm0.5 9.640625l0.140625 1.65625q-1.0 0.125 -1.640625 0.546875q-0.640625 0.4375 -1.046875 1.34375q-0.390625 0.921875 -0.390625 2.0625q0 1.0 0.296875 1.78125q0.296875 0.78125 0.8125 1.15625q0.53125 0.375 1.15625 0.375q0.625 0 1.09375 -0.375q0.46875 -0.359375 0.796875 -1.1875q0.203125 -0.546875 0.640625 -2.390625q0.453125 -1.828125 0.84375 -2.5625q0.5 -0.96875 1.234375 -1.4375q0.75 -0.46875 1.671875 -0.46875q1.0 0 1.875 0.578125q0.890625 0.578125 1.34375 1.671875q0.453125 1.109375 0.453125 2.453125q0 1.484375 -0.484375 2.609375q-0.46875 1.140625 -1.40625 1.75q-0.921875 0.609375 -2.09375 0.65625l-0.125 -1.6875q1.265625 -0.140625 1.90625 -0.9375q0.65625 -0.78125 0.65625 -2.3125q0 -1.609375 -0.59375 -2.34375q-0.59375 -0.734375 -1.421875 -0.734375q-0.71875 0 -1.171875 0.53125q-0.46875 0.5 -0.96875 2.65625q-0.484375 2.15625 -0.84375 2.953125q-0.53125 1.171875 -1.359375 1.71875q-0.828125 0.5625 -1.90625 0.5625q-1.0625 0 -2.015625 -0.609375q-0.9375 -0.609375 -1.46875 -1.75q-0.515625 -1.140625 -0.515625 -2.578125q0 -1.8125 0.53125 -3.046875q0.53125 -1.21875 1.59375 -1.921875q1.0625 -0.6875 2.40625 -0.71875zm-4.296875 18.408134l8.40625 0l0 -1.453125l1.265625 0l0 1.453125l1.03125 0q0.96875 0 1.453125 0.171875q0.640625 0.234375 1.03125 0.828125q0.390625 0.59375 0.390625 1.671875q0 0.6875 -0.15625 1.53125l-1.4375 -0.25q0.09375 -0.5 0.09375 -0.953125q0 -0.75 -0.328125 -1.0625q-0.3125 -0.3125 -1.1875 -0.3125l-0.890625 0l0 1.890625l-1.265625 0l0 -1.890625l-8.40625 0l0 -1.625zm0 4.777054l9.671875 0l0 1.46875l-1.46875 0q1.03125 0.5625 1.359375 1.03125q0.328125 0.484375 0.328125 1.0625q0 0.828125 -0.53125 1.6875l-1.515625 -0.5625q0.359375 -0.609375 0.359375 -1.203125q0 -0.546875 -0.328125 -0.96875q-0.328125 -0.421875 -0.890625 -0.609375q-0.875 -0.28125 -1.921875 -0.28125l-5.0625 0l0 -1.625zm1.1875 12.540802q-0.765625 -0.921875 -1.09375 -1.765625q-0.3125 -0.828125 -0.3125 -1.796875q0 -1.59375 0.78125 -2.453125q0.78125 -0.859375 1.984375 -0.859375q0.71875 0 1.296875 0.328125q0.59375 0.328125 0.9375 0.84375q0.359375 0.53125 0.546875 1.1875q0.125 0.46875 0.25 1.453125q0.234375 1.984375 0.5625 2.921875q0.34375 0.015625 0.421875 0.015625q1.0 0 1.421875 -0.46875q0.546875 -0.625 0.546875 -1.875q0 -1.15625 -0.40625 -1.703125q-0.40625 -0.546875 -1.421875 -0.8125l0.21875 -1.609375q1.015625 0.21875 1.640625 0.71875q0.640625 0.5 0.984375 1.453125q0.34375 0.953125 0.34375 2.1875q0 1.25 -0.296875 2.015625q-0.28125 0.78125 -0.734375 1.140625q-0.4375 0.375 -1.109375 0.515625q-0.421875 0.078125 -1.515625 0.078125l-2.1875 0q-2.28125 0 -2.890625 0.109375q-0.59375 0.109375 -1.15625 0.40625l0 -1.703125q0.515625 -0.265625 1.1875 -0.328125zm3.671875 -0.140625q-0.375 -0.890625 -0.625 -2.671875q-0.140625 -1.015625 -0.328125 -1.4375q-0.1875 -0.421875 -0.53125 -0.65625q-0.34375 -0.21875 -0.78125 -0.21875q-0.65625 0 -1.09375 0.5q-0.4375 0.5 -0.4375 1.453125q0 0.9375 0.40625 1.671875q0.421875 0.75 1.140625 1.09375q0.5625 0.265625 1.640625 0.265625l0.609375 0zm-4.859375 4.203827l9.671875 0l0 1.46875l-1.359375 0q0.71875 0.453125 1.140625 1.203125q0.4375 0.765625 0.4375 1.71875q0 1.078125 -0.453125 1.765625q-0.4375 0.6875 -1.234375 0.96875q1.6875 1.15625 1.6875 2.984375q0 1.453125 -0.796875 2.21875q-0.796875 0.78125 -2.453125 0.78125l-6.640625 0l0 -1.640625l6.09375 0q0.984375 0 1.40625 -0.15625q0.4375 -0.15625 0.703125 -0.578125q0.265625 -0.421875 0.265625 -0.984375q0 -1.015625 -0.6875 -1.6875q-0.671875 -0.671875 -2.15625 -0.671875l-5.625 0l0 -1.640625l6.28125 0q1.09375 0 1.640625 -0.40625q0.546875 -0.40625 0.546875 -1.3125q0 -0.6875 -0.359375 -1.28125q-0.359375 -0.59375 -1.0625 -0.859375q-0.703125 -0.25 -2.03125 -0.25l-5.015625 0l0 -1.640625zm3.109375 22.165802l-0.203125 1.6875q-1.484375 -0.40625 -2.3125 -1.484375q-0.8125 -1.078125 -0.8125 -2.765625q0 -2.125 1.296875 -3.375q1.3125 -1.234375 3.671875 -1.234375q2.453125 0 3.796875 1.25q1.34375 1.265625 1.34375 3.265625q0 1.9375 -1.328125 3.15625q-1.3125 1.234375 -3.703125 1.234375q-0.15625 0 -0.4375 0l0 -7.21875q-1.59375 0.09375 -2.453125 0.90625q-0.84375 0.8125 -0.84375 2.015625q0 0.90625 0.46875 1.546875q0.484375 0.640625 1.515625 1.015625zm2.65625 -5.390625l0 5.40625q1.21875 -0.109375 1.828125 -0.625q0.953125 -0.78125 0.953125 -2.03125q0 -1.125 -0.765625 -1.90625q-0.75 -0.765625 -2.015625 -0.84375z" fill-rule="nonzero"/><path fill="#f4cccc" d="m319.19867 87.138565l0 103.68504l-55.18112 0l0 -103.68504z" fill-rule="evenodd"/><path stroke="#000000" stroke-width="1.0" stroke-linejoin="round" stroke-linecap="butt" d="m319.19867 87.138565l0 103.68504l-55.18112 0l0 -103.68504z" fill-rule="evenodd"/><path fill="#000000" d="m288.485 102.19073l0.21875 1.59375q-1.53125 0.078125 -2.109375 0.578125q-0.5625 0.515625 -0.5625 1.421875q0 0.65625 0.296875 1.140625q0.3125 0.484375 0.828125 0.65625q0.53125 0.1875 1.6875 0.1875l9.203125 0l0 1.765625l-9.109375 0q-1.671875 0 -2.59375 -0.40625q-0.921875 -0.40625 -1.40625 -1.28125q-0.484375 -0.875 -0.484375 -2.0625q0 -1.75 1.015625 -2.6875q1.015625 -0.9375 3.015625 -0.90625zm0.5 9.640625l0.140625 1.65625q-1.0 0.125 -1.640625 0.546875q-0.640625 0.4375 -1.046875 1.34375q-0.390625 0.921875 -0.390625 2.0625q0 1.0 0.296875 1.78125q0.296875 0.78125 0.8125 1.15625q0.53125 0.375 1.15625 0.375q0.625 0 1.09375 -0.375q0.46875 -0.359375 0.796875 -1.1875q0.203125 -0.546875 0.640625 -2.390625q0.453125 -1.828125 0.84375 -2.5625q0.5 -0.96875 1.234375 -1.4375q0.75 -0.46875 1.671875 -0.46875q1.0 0 1.875 0.578125q0.890625 0.578125 1.34375 1.671875q0.453125 1.109375 0.453125 2.453125q0 1.484375 -0.484375 2.609375q-0.46875 1.140625 -1.40625 1.75q-0.921875 0.609375 -2.09375 0.65625l-0.125 -1.6875q1.265625 -0.140625 1.90625 -0.9375q0.65625 -0.78125 0.65625 -2.3125q0 -1.609375 -0.59375 -2.34375q-0.59375 -0.734375 -1.421875 -0.734375q-0.71875 0 -1.171875 0.53125q-0.46875 0.5 -0.96875 2.65625q-0.484375 2.15625 -0.84375 2.953125q-0.53125 1.171875 -1.359375 1.71875q-0.828125 0.5625 -1.90625 0.5625q-1.0625 0 -2.015625 -0.609375q-0.9375 -0.609375 -1.46875 -1.75q-0.515625 -1.140625 -0.515625 -2.578125q0 -1.8125 0.53125 -3.046875q0.53125 -1.21875 1.59375 -1.921875q1.0625 -0.6875 2.40625 -0.71875zm-4.296875 18.40812l8.40625 0l0 -1.453125l1.265625 0l0 1.453125l1.03125 0q0.96875 0 1.453125 0.171875q0.640625 0.234375 1.03125 0.828125q0.390625 0.59375 0.390625 1.671875q0 0.6875 -0.15625 1.53125l-1.4375 -0.25q0.09375 -0.5 0.09375 -0.953125q0 -0.75 -0.328125 -1.0625q-0.3125 -0.3125 -1.1875 -0.3125l-0.890625 0l0 1.890625l-1.265625 0l0 -1.890625l-8.40625 0l0 -1.625zm0 4.777054l9.671875 0l0 1.46875l-1.46875 0q1.03125 0.5625 1.359375 1.03125q0.328125 0.484375 0.328125 1.0625q0 0.828125 -0.53125 1.6875l-1.515625 -0.5625q0.359375 -0.609375 0.359375 -1.203125q0 -0.546875 -0.328125 -0.96875q-0.328125 -0.421875 -0.890625 -0.609375q-0.875 -0.28125 -1.921875 -0.28125l-5.0625 0l0 -1.625zm1.1875 12.540802q-0.765625 -0.921875 -1.09375 -1.765625q-0.3125 -0.828125 -0.3125 -1.796875q0 -1.59375 0.78125 -2.453125q0.78125 -0.859375 1.984375 -0.859375q0.71875 0 1.296875 0.328125q0.59375 0.328125 0.9375 0.84375q0.359375 0.53125 0.546875 1.1875q0.125 0.46875 0.25 1.453125q0.234375 1.984375 0.5625 2.921875q0.34375 0.015625 0.421875 0.015625q1.0 0 1.421875 -0.46875q0.546875 -0.625 0.546875 -1.875q0 -1.15625 -0.40625 -1.703125q-0.40625 -0.546875 -1.421875 -0.8125l0.21875 -1.609375q1.015625 0.21875 1.640625 0.71875q0.640625 0.5 0.984375 1.453125q0.34375 0.953125 0.34375 2.1875q0 1.25 -0.296875 2.015625q-0.28125 0.78125 -0.734375 1.140625q-0.4375 0.375 -1.109375 0.515625q-0.421875 0.078125 -1.515625 0.078125l-2.1875 0q-2.28125 0 -2.890625 0.109375q-0.59375 0.109375 -1.15625 0.40625l0 -1.703125q0.515625 -0.265625 1.1875 -0.328125zm3.671875 -0.140625q-0.375 -0.890625 -0.625 -2.671875q-0.140625 -1.015625 -0.328125 -1.4375q-0.1875 -0.421875 -0.53125 -0.65625q-0.34375 -0.21875 -0.78125 -0.21875q-0.65625 0 -1.09375 0.5q-0.4375 0.5 -0.4375 1.453125q0 0.9375 0.40625 1.671875q0.421875 0.75 1.140625 1.09375q0.5625 0.265625 1.640625 0.265625l0.609375 0zm-4.859375 4.203842l9.671875 0l0 1.46875l-1.359375 0q0.71875 0.453125 1.140625 1.203125q0.4375 0.765625 0.4375 1.71875q0 1.078125 -0.453125 1.765625q-0.4375 0.6875 -1.234375 0.96875q1.6875 1.15625 1.6875 2.984375q0 1.453125 -0.796875 2.21875q-0.796875 0.78125 -2.453125 0.78125l-6.640625 0l0 -1.640625l6.09375 0q0.984375 0 1.40625 -0.15625q0.4375 -0.15625 0.703125 -0.578125q0.265625 -0.421875 0.265625 -0.984375q0 -1.015625 -0.6875 -1.6875q-0.671875 -0.671875 -2.15625 -0.671875l-5.625 0l0 -1.640625l6.28125 0q1.09375 0 1.640625 -0.40625q0.546875 -0.40625 0.546875 -1.3125q0 -0.6875 -0.359375 -1.28125q-0.359375 -0.59375 -1.0625 -0.859375q-0.703125 -0.25 -2.03125 -0.25l-5.015625 0l0 -1.640625zm3.109375 22.165802l-0.203125 1.6875q-1.484375 -0.40625 -2.3125 -1.484375q-0.8125 -1.078125 -0.8125 -2.765625q0 -2.125 1.296875 -3.375q1.3125 -1.234375 3.671875 -1.234375q2.453125 0 3.796875 1.25q1.34375 1.265625 1.34375 3.265625q0 1.9375 -1.328125 3.15625q-1.3125 1.234375 -3.703125 1.234375q-0.15625 0 -0.4375 0l0 -7.21875q-1.59375 0.09375 -2.453125 0.90625q-0.84375 0.8125 -0.84375 2.015625q0 0.90625 0.46875 1.546875q0.484375 0.640625 1.515625 1.015625zm2.65625 -5.390625l0 5.40625q1.21875 -0.109375 1.828125 -0.625q0.953125 -0.78125 0.953125 -2.03125q0 -1.125 -0.765625 -1.90625q-0.75 -0.765625 -2.015625 -0.84375z" fill-rule="nonzero"/><path fill="#f4cccc" d="m374.3631 87.14034l0 103.685036l-55.18109 0l0 -103.685036z" fill-rule="evenodd"/><path stroke="#000000" stroke-width="1.0" stroke-linejoin="round" stroke-linecap="butt" d="m374.3631 87.14034l0 103.685036l-55.18109 0l0 -103.685036z" fill-rule="evenodd"/><path fill="#000000" d="m343.6494 102.1925l0.21875 1.59375q-1.53125 0.078125 -2.109375 0.578125q-0.5625 0.515625 -0.5625 1.421875q0 0.65625 0.296875 1.140625q0.3125 0.484375 0.828125 0.65625q0.53125 0.1875 1.6875 0.1875l9.203125 0l0 1.765625l-9.109375 0q-1.671875 0 -2.59375 -0.40625q-0.921875 -0.40625 -1.40625 -1.28125q-0.484375 -0.875 -0.484375 -2.0625q0 -1.75 1.015625 -2.6875q1.015625 -0.9375 3.015625 -0.90625zm0.5 9.640625l0.140625 1.65625q-1.0 0.125 -1.640625 0.546875q-0.640625 0.4375 -1.046875 1.34375q-0.390625 0.921875 -0.390625 2.0625q0 1.0 0.296875 1.78125q0.296875 0.78125 0.8125 1.15625q0.53125 0.375 1.15625 0.375q0.625 0 1.09375 -0.375q0.46875 -0.359375 0.796875 -1.1875q0.203125 -0.546875 0.640625 -2.390625q0.453125 -1.828125 0.84375 -2.5625q0.5 -0.96875 1.234375 -1.4375q0.75 -0.46875 1.671875 -0.46875q1.0 0 1.875 0.578125q0.890625 0.578125 1.34375 1.671875q0.453125 1.109375 0.453125 2.453125q0 1.484375 -0.484375 2.609375q-0.46875 1.140625 -1.40625 1.75q-0.921875 0.609375 -2.09375 0.65625l-0.125 -1.6875q1.265625 -0.140625 1.90625 -0.9375q0.65625 -0.78125 0.65625 -2.3125q0 -1.609375 -0.59375 -2.34375q-0.59375 -0.734375 -1.421875 -0.734375q-0.71875 0 -1.171875 0.53125q-0.46875 0.5 -0.96875 2.65625q-0.484375 2.15625 -0.84375 2.953125q-0.53125 1.171875 -1.359375 1.71875q-0.828125 0.5625 -1.90625 0.5625q-1.0625 0 -2.015625 -0.609375q-0.9375 -0.609375 -1.46875 -1.75q-0.515625 -1.140625 -0.515625 -2.578125q0 -1.8125 0.53125 -3.046875q0.53125 -1.21875 1.59375 -1.921875q1.0625 -0.6875 2.40625 -0.71875zm-4.296875 18.408134l8.40625 0l0 -1.453125l1.265625 0l0 1.453125l1.03125 0q0.96875 0 1.453125 0.171875q0.640625 0.234375 1.03125 0.828125q0.390625 0.59375 0.390625 1.671875q0 0.6875 -0.15625 1.53125l-1.4375 -0.25q0.09375 -0.5 0.09375 -0.953125q0 -0.75 -0.328125 -1.0625q-0.3125 -0.3125 -1.1875 -0.3125l-0.890625 0l0 1.890625l-1.265625 0l0 -1.890625l-8.40625 0l0 -1.625zm0 4.777054l9.671875 0l0 1.46875l-1.46875 0q1.03125 0.5625 1.359375 1.03125q0.328125 0.484375 0.328125 1.0625q0 0.828125 -0.53125 1.6875l-1.515625 -0.5625q0.359375 -0.609375 0.359375 -1.203125q0 -0.546875 -0.328125 -0.96875q-0.328125 -0.421875 -0.890625 -0.609375q-0.875 -0.28125 -1.921875 -0.28125l-5.0625 0l0 -1.625zm1.1875 12.540802q-0.765625 -0.921875 -1.09375 -1.765625q-0.3125 -0.828125 -0.3125 -1.796875q0 -1.59375 0.78125 -2.453125q0.78125 -0.859375 1.984375 -0.859375q0.71875 0 1.296875 0.328125q0.59375 0.328125 0.9375 0.84375q0.359375 0.53125 0.546875 1.1875q0.125 0.46875 0.25 1.453125q0.234375 1.984375 0.5625 2.921875q0.34375 0.015625 0.421875 0.015625q1.0 0 1.421875 -0.46875q0.546875 -0.625 0.546875 -1.875q0 -1.15625 -0.40625 -1.703125q-0.40625 -0.546875 -1.421875 -0.8125l0.21875 -1.609375q1.015625 0.21875 1.640625 0.71875q0.640625 0.5 0.984375 1.453125q0.34375 0.953125 0.34375 2.1875q0 1.25 -0.296875 2.015625q-0.28125 0.78125 -0.734375 1.140625q-0.4375 0.375 -1.109375 0.515625q-0.421875 0.078125 -1.515625 0.078125l-2.1875 0q-2.28125 0 -2.890625 0.109375q-0.59375 0.109375 -1.15625 0.40625l0 -1.703125q0.515625 -0.265625 1.1875 -0.328125zm3.671875 -0.140625q-0.375 -0.890625 -0.625 -2.671875q-0.140625 -1.015625 -0.328125 -1.4375q-0.1875 -0.421875 -0.53125 -0.65625q-0.34375 -0.21875 -0.78125 -0.21875q-0.65625 0 -1.09375 0.5q-0.4375 0.5 -0.4375 1.453125q0 0.9375 0.40625 1.671875q0.421875 0.75 1.140625 1.09375q0.5625 0.265625 1.640625 0.265625l0.609375 0zm-4.859375 4.203827l9.671875 0l0 1.46875l-1.359375 0q0.71875 0.453125 1.140625 1.203125q0.4375 0.765625 0.4375 1.71875q0 1.078125 -0.453125 1.765625q-0.4375 0.6875 -1.234375 0.96875q1.6875 1.15625 1.6875 2.984375q0 1.453125 -0.796875 2.21875q-0.796875 0.78125 -2.453125 0.78125l-6.640625 0l0 -1.640625l6.09375 0q0.984375 0 1.40625 -0.15625q0.4375 -0.15625 0.703125 -0.578125q0.265625 -0.421875 0.265625 -0.984375q0 -1.015625 -0.6875 -1.6875q-0.671875 -0.671875 -2.15625 -0.671875l-5.625 0l0 -1.640625l6.28125 0q1.09375 0 1.640625 -0.40625q0.546875 -0.40625 0.546875 -1.3125q0 -0.6875 -0.359375 -1.28125q-0.359375 -0.59375 -1.0625 -0.859375q-0.703125 -0.25 -2.03125 -0.25l-5.015625 0l0 -1.640625zm3.109375 22.165802l-0.203125 1.6875q-1.484375 -0.40625 -2.3125 -1.484375q-0.8125 -1.078125 -0.8125 -2.765625q0 -2.125 1.296875 -3.375q1.3125 -1.234375 3.671875 -1.234375q2.453125 0 3.796875 1.25q1.34375 1.265625 1.34375 3.265625q0 1.9375 -1.328125 3.15625q-1.3125 1.234375 -3.703125 1.234375q-0.15625 0 -0.4375 0l0 -7.21875q-1.59375 0.09375 -2.453125 0.90625q-0.84375 0.8125 -0.84375 2.015625q0 0.90625 0.46875 1.546875q0.484375 0.640625 1.515625 1.015625zm2.65625 -5.390625l0 5.40625q1.21875 -0.109375 1.828125 -0.625q0.953125 -0.78125 0.953125 -2.03125q0 -1.125 -0.765625 -1.90625q-0.75 -0.765625 -2.015625 -0.84375z" fill-rule="nonzero"/><path fill="#f4cccc" d="m680.2867 87.14034l0 103.685036l-55.181152 0l0 -103.685036z" fill-rule="evenodd"/><path stroke="#000000" stroke-width="1.0" stroke-linejoin="round" stroke-linecap="butt" d="m680.2867 87.14034l0 103.685036l-55.181152 0l0 -103.685036z" fill-rule="evenodd"/><path fill="#000000" d="m649.573 102.1925l0.21875 1.59375q-1.53125 0.078125 -2.109375 0.578125q-0.5625 0.515625 -0.5625 1.421875q0 0.65625 0.296875 1.140625q0.3125 0.484375 0.828125 0.65625q0.53125 0.1875 1.6875 0.1875l9.203125 0l0 1.765625l-9.109375 0q-1.671875 0 -2.59375 -0.40625q-0.921875 -0.40625 -1.40625 -1.28125q-0.484375 -0.875 -0.484375 -2.0625q0 -1.75 1.015625 -2.6875q1.015625 -0.9375 3.015625 -0.90625zm0.5 9.640625l0.140625 1.65625q-1.0 0.125 -1.640625 0.546875q-0.640625 0.4375 -1.046875 1.34375q-0.390625 0.921875 -0.390625 2.0625q0 1.0 0.296875 1.78125q0.296875 0.78125 0.8125 1.15625q0.53125 0.375 1.15625 0.375q0.625 0 1.09375 -0.375q0.46875 -0.359375 0.796875 -1.1875q0.203125 -0.546875 0.640625 -2.390625q0.453125 -1.828125 0.84375 -2.5625q0.5 -0.96875 1.234375 -1.4375q0.75 -0.46875 1.671875 -0.46875q1.0 0 1.875 0.578125q0.890625 0.578125 1.34375 1.671875q0.453125 1.109375 0.453125 2.453125q0 1.484375 -0.484375 2.609375q-0.46875 1.140625 -1.40625 1.75q-0.921875 0.609375 -2.09375 0.65625l-0.125 -1.6875q1.265625 -0.140625 1.90625 -0.9375q0.65625 -0.78125 0.65625 -2.3125q0 -1.609375 -0.59375 -2.34375q-0.59375 -0.734375 -1.421875 -0.734375q-0.71875 0 -1.171875 0.53125q-0.46875 0.5 -0.96875 2.65625q-0.484375 2.15625 -0.84375 2.953125q-0.53125 1.171875 -1.359375 1.71875q-0.828125 0.5625 -1.90625 0.5625q-1.0625 0 -2.015625 -0.609375q-0.9375 -0.609375 -1.46875 -1.75q-0.515625 -1.140625 -0.515625 -2.578125q0 -1.8125 0.53125 -3.046875q0.53125 -1.21875 1.59375 -1.921875q1.0625 -0.6875 2.40625 -0.71875zm-4.296875 18.408134l8.40625 0l0 -1.453125l1.265625 0l0 1.453125l1.03125 0q0.96875 0 1.453125 0.171875q0.640625 0.234375 1.03125 0.828125q0.390625 0.59375 0.390625 1.671875q0 0.6875 -0.15625 1.53125l-1.4375 -0.25q0.09375 -0.5 0.09375 -0.953125q0 -0.75 -0.328125 -1.0625q-0.3125 -0.3125 -1.1875 -0.3125l-0.890625 0l0 1.890625l-1.265625 0l0 -1.890625l-8.40625 0l0 -1.625zm0 4.777054l9.671875 0l0 1.46875l-1.46875 0q1.03125 0.5625 1.359375 1.03125q0.328125 0.484375 0.328125 1.0625q0 0.828125 -0.53125 1.6875l-1.515625 -0.5625q0.359375 -0.609375 0.359375 -1.203125q0 -0.546875 -0.328125 -0.96875q-0.328125 -0.421875 -0.890625 -0.609375q-0.875 -0.28125 -1.921875 -0.28125l-5.0625 0l0 -1.625zm1.1875 12.540802q-0.765625 -0.921875 -1.09375 -1.765625q-0.3125 -0.828125 -0.3125 -1.796875q0 -1.59375 0.78125 -2.453125q0.78125 -0.859375 1.984375 -0.859375q0.71875 0 1.296875 0.328125q0.59375 0.328125 0.9375 0.84375q0.359375 0.53125 0.546875 1.1875q0.125 0.46875 0.25 1.453125q0.234375 1.984375 0.5625 2.921875q0.34375 0.015625 0.421875 0.015625q1.0 0 1.421875 -0.46875q0.546875 -0.625 0.546875 -1.875q0 -1.15625 -0.40625 -1.703125q-0.40625 -0.546875 -1.421875 -0.8125l0.21875 -1.609375q1.015625 0.21875 1.640625 0.71875q0.640625 0.5 0.984375 1.453125q0.34375 0.953125 0.34375 2.1875q0 1.25 -0.296875 2.015625q-0.28125 0.78125 -0.734375 1.140625q-0.4375 0.375 -1.109375 0.515625q-0.421875 0.078125 -1.515625 0.078125l-2.1875 0q-2.28125 0 -2.890625 0.109375q-0.59375 0.109375 -1.15625 0.40625l0 -1.703125q0.515625 -0.265625 1.1875 -0.328125zm3.671875 -0.140625q-0.375 -0.890625 -0.625 -2.671875q-0.140625 -1.015625 -0.328125 -1.4375q-0.1875 -0.421875 -0.53125 -0.65625q-0.34375 -0.21875 -0.78125 -0.21875q-0.65625 0 -1.09375 0.5q-0.4375 0.5 -0.4375 1.453125q0 0.9375 0.40625 1.671875q0.421875 0.75 1.140625 1.09375q0.5625 0.265625 1.640625 0.265625l0.609375 0zm-4.859375 4.203827l9.671875 0l0 1.46875l-1.359375 0q0.71875 0.453125 1.140625 1.203125q0.4375 0.765625 0.4375 1.71875q0 1.078125 -0.453125 1.765625q-0.4375 0.6875 -1.234375 0.96875q1.6875 1.15625 1.6875 2.984375q0 1.453125 -0.796875 2.21875q-0.796875 0.78125 -2.453125 0.78125l-6.640625 0l0 -1.640625l6.09375 0q0.984375 0 1.40625 -0.15625q0.4375 -0.15625 0.703125 -0.578125q0.265625 -0.421875 0.265625 -0.984375q0 -1.015625 -0.6875 -1.6875q-0.671875 -0.671875 -2.15625 -0.671875l-5.625 0l0 -1.640625l6.28125 0q1.09375 0 1.640625 -0.40625q0.546875 -0.40625 0.546875 -1.3125q0 -0.6875 -0.359375 -1.28125q-0.359375 -0.59375 -1.0625 -0.859375q-0.703125 -0.25 -2.03125 -0.25l-5.015625 0l0 -1.640625zm3.109375 22.165802l-0.203125 1.6875q-1.484375 -0.40625 -2.3125 -1.484375q-0.8125 -1.078125 -0.8125 -2.765625q0 -2.125 1.296875 -3.375q1.3125 -1.234375 3.671875 -1.234375q2.453125 0 3.796875 1.25q1.34375 1.265625 1.34375 3.265625q0 1.9375 -1.328125 3.15625q-1.3125 1.234375 -3.703125 1.234375q-0.15625 0 -0.4375 0l0 -7.21875q-1.59375 0.09375 -2.453125 0.90625q-0.84375 0.8125 -0.84375 2.015625q0 0.90625 0.46875 1.546875q0.484375 0.640625 1.515625 1.015625zm2.65625 -5.390625l0 5.40625q1.21875 -0.109375 1.828125 -0.625q0.953125 -0.78125 0.953125 -2.03125q0 -1.125 -0.765625 -1.90625q-0.75 -0.765625 -2.015625 -0.84375z" fill-rule="nonzero"/><path fill="#f4cccc" d="m735.4511 87.138565l0 103.68504l-55.18109 0l0 -103.68504z" fill-rule="evenodd"/><path stroke="#000000" stroke-width="1.0" stroke-linejoin="round" stroke-linecap="butt" d="m735.4511 87.138565l0 103.68504l-55.18109 0l0 -103.68504z" fill-rule="evenodd"/><path fill="#000000" d="m704.7374 102.19073l0.21875 1.59375q-1.53125 0.078125 -2.109375 0.578125q-0.5625 0.515625 -0.5625 1.421875q0 0.65625 0.296875 1.140625q0.3125 0.484375 0.828125 0.65625q0.53125 0.1875 1.6875 0.1875l9.203125 0l0 1.765625l-9.109375 0q-1.671875 0 -2.59375 -0.40625q-0.921875 -0.40625 -1.40625 -1.28125q-0.484375 -0.875 -0.484375 -2.0625q0 -1.75 1.015625 -2.6875q1.015625 -0.9375 3.015625 -0.90625zm0.5 9.640625l0.140625 1.65625q-1.0 0.125 -1.640625 0.546875q-0.640625 0.4375 -1.046875 1.34375q-0.390625 0.921875 -0.390625 2.0625q0 1.0 0.296875 1.78125q0.296875 0.78125 0.8125 1.15625q0.53125 0.375 1.15625 0.375q0.625 0 1.09375 -0.375q0.46875 -0.359375 0.796875 -1.1875q0.203125 -0.546875 0.640625 -2.390625q0.453125 -1.828125 0.84375 -2.5625q0.5 -0.96875 1.234375 -1.4375q0.75 -0.46875 1.671875 -0.46875q1.0 0 1.875 0.578125q0.890625 0.578125 1.34375 1.671875q0.453125 1.109375 0.453125 2.453125q0 1.484375 -0.484375 2.609375q-0.46875 1.140625 -1.40625 1.75q-0.921875 0.609375 -2.09375 0.65625l-0.125 -1.6875q1.265625 -0.140625 1.90625 -0.9375q0.65625 -0.78125 0.65625 -2.3125q0 -1.609375 -0.59375 -2.34375q-0.59375 -0.734375 -1.421875 -0.734375q-0.71875 0 -1.171875 0.53125q-0.46875 0.5 -0.96875 2.65625q-0.484375 2.15625 -0.84375 2.953125q-0.53125 1.171875 -1.359375 1.71875q-0.828125 0.5625 -1.90625 0.5625q-1.0625 0 -2.015625 -0.609375q-0.9375 -0.609375 -1.46875 -1.75q-0.515625 -1.140625 -0.515625 -2.578125q0 -1.8125 0.53125 -3.046875q0.53125 -1.21875 1.59375 -1.921875q1.0625 -0.6875 2.40625 -0.71875zm-4.296875 18.40812l8.40625 0l0 -1.453125l1.265625 0l0 1.453125l1.03125 0q0.96875 0 1.453125 0.171875q0.640625 0.234375 1.03125 0.828125q0.390625 0.59375 0.390625 1.671875q0 0.6875 -0.15625 1.53125l-1.4375 -0.25q0.09375 -0.5 0.09375 -0.953125q0 -0.75 -0.328125 -1.0625q-0.3125 -0.3125 -1.1875 -0.3125l-0.890625 0l0 1.890625l-1.265625 0l0 -1.890625l-8.40625 0l0 -1.625zm0 4.777054l9.671875 0l0 1.46875l-1.46875 0q1.03125 0.5625 1.359375 1.03125q0.328125 0.484375 0.328125 1.0625q0 0.828125 -0.53125 1.6875l-1.515625 -0.5625q0.359375 -0.609375 0.359375 -1.203125q0 -0.546875 -0.328125 -0.96875q-0.328125 -0.421875 -0.890625 -0.609375q-0.875 -0.28125 -1.921875 -0.28125l-5.0625 0l0 -1.625zm1.1875 12.540802q-0.765625 -0.921875 -1.09375 -1.765625q-0.3125 -0.828125 -0.3125 -1.796875q0 -1.59375 0.78125 -2.453125q0.78125 -0.859375 1.984375 -0.859375q0.71875 0 1.296875 0.328125q0.59375 0.328125 0.9375 0.84375q0.359375 0.53125 0.546875 1.1875q0.125 0.46875 0.25 1.453125q0.234375 1.984375 0.5625 2.921875q0.34375 0.015625 0.421875 0.015625q1.0 0 1.421875 -0.46875q0.546875 -0.625 0.546875 -1.875q0 -1.15625 -0.40625 -1.703125q-0.40625 -0.546875 -1.421875 -0.8125l0.21875 -1.609375q1.015625 0.21875 1.640625 0.71875q0.640625 0.5 0.984375 1.453125q0.34375 0.953125 0.34375 2.1875q0 1.25 -0.296875 2.015625q-0.28125 0.78125 -0.734375 1.140625q-0.4375 0.375 -1.109375 0.515625q-0.421875 0.078125 -1.515625 0.078125l-2.1875 0q-2.28125 0 -2.890625 0.109375q-0.59375 0.109375 -1.15625 0.40625l0 -1.703125q0.515625 -0.265625 1.1875 -0.328125zm3.671875 -0.140625q-0.375 -0.890625 -0.625 -2.671875q-0.140625 -1.015625 -0.328125 -1.4375q-0.1875 -0.421875 -0.53125 -0.65625q-0.34375 -0.21875 -0.78125 -0.21875q-0.65625 0 -1.09375 0.5q-0.4375 0.5 -0.4375 1.453125q0 0.9375 0.40625 1.671875q0.421875 0.75 1.140625 1.09375q0.5625 0.265625 1.640625 0.265625l0.609375 0zm-4.859375 4.203842l9.671875 0l0 1.46875l-1.359375 0q0.71875 0.453125 1.140625 1.203125q0.4375 0.765625 0.4375 1.71875q0 1.078125 -0.453125 1.765625q-0.4375 0.6875 -1.234375 0.96875q1.6875 1.15625 1.6875 2.984375q0 1.453125 -0.796875 2.21875q-0.796875 0.78125 -2.453125 0.78125l-6.640625 0l0 -1.640625l6.09375 0q0.984375 0 1.40625 -0.15625q0.4375 -0.15625 0.703125 -0.578125q0.265625 -0.421875 0.265625 -0.984375q0 -1.015625 -0.6875 -1.6875q-0.671875 -0.671875 -2.15625 -0.671875l-5.625 0l0 -1.640625l6.28125 0q1.09375 0 1.640625 -0.40625q0.546875 -0.40625 0.546875 -1.3125q0 -0.6875 -0.359375 -1.28125q-0.359375 -0.59375 -1.0625 -0.859375q-0.703125 -0.25 -2.03125 -0.25l-5.015625 0l0 -1.640625zm3.109375 22.165802l-0.203125 1.6875q-1.484375 -0.40625 -2.3125 -1.484375q-0.8125 -1.078125 -0.8125 -2.765625q0 -2.125 1.296875 -3.375q1.3125 -1.234375 3.671875 -1.234375q2.453125 0 3.796875 1.25q1.34375 1.265625 1.34375 3.265625q0 1.9375 -1.328125 3.15625q-1.3125 1.234375 -3.703125 1.234375q-0.15625 0 -0.4375 0l0 -7.21875q-1.59375 0.09375 -2.453125 0.90625q-0.84375 0.8125 -0.84375 2.015625q0 0.90625 0.46875 1.546875q0.484375 0.640625 1.515625 1.015625zm2.65625 -5.390625l0 5.40625q1.21875 -0.109375 1.828125 -0.625q0.953125 -0.78125 0.953125 -2.03125q0 -1.125 -0.765625 -1.90625q-0.75 -0.765625 -2.015625 -0.84375z" fill-rule="nonzero"/><path fill="#f4cccc" d="m790.61554 87.14034l0 103.685036l-55.18109 0l0 -103.685036z" fill-rule="evenodd"/><path stroke="#000000" stroke-width="1.0" stroke-linejoin="round" stroke-linecap="butt" d="m790.61554 87.14034l0 103.685036l-55.18109 0l0 -103.685036z" fill-rule="evenodd"/><path fill="#000000" d="m759.90186 102.1925l0.21875 1.59375q-1.53125 0.078125 -2.109375 0.578125q-0.5625 0.515625 -0.5625 1.421875q0 0.65625 0.296875 1.140625q0.3125 0.484375 0.828125 0.65625q0.53125 0.1875 1.6875 0.1875l9.203125 0l0 1.765625l-9.109375 0q-1.671875 0 -2.59375 -0.40625q-0.921875 -0.40625 -1.40625 -1.28125q-0.484375 -0.875 -0.484375 -2.0625q0 -1.75 1.015625 -2.6875q1.015625 -0.9375 3.015625 -0.90625zm0.5 9.640625l0.140625 1.65625q-1.0 0.125 -1.640625 0.546875q-0.640625 0.4375 -1.046875 1.34375q-0.390625 0.921875 -0.390625 2.0625q0 1.0 0.296875 1.78125q0.296875 0.78125 0.8125 1.15625q0.53125 0.375 1.15625 0.375q0.625 0 1.09375 -0.375q0.46875 -0.359375 0.796875 -1.1875q0.203125 -0.546875 0.640625 -2.390625q0.453125 -1.828125 0.84375 -2.5625q0.5 -0.96875 1.234375 -1.4375q0.75 -0.46875 1.671875 -0.46875q1.0 0 1.875 0.578125q0.890625 0.578125 1.34375 1.671875q0.453125 1.109375 0.453125 2.453125q0 1.484375 -0.484375 2.609375q-0.46875 1.140625 -1.40625 1.75q-0.921875 0.609375 -2.09375 0.65625l-0.125 -1.6875q1.265625 -0.140625 1.90625 -0.9375q0.65625 -0.78125 0.65625 -2.3125q0 -1.609375 -0.59375 -2.34375q-0.59375 -0.734375 -1.421875 -0.734375q-0.71875 0 -1.171875 0.53125q-0.46875 0.5 -0.96875 2.65625q-0.484375 2.15625 -0.84375 2.953125q-0.53125 1.171875 -1.359375 1.71875q-0.828125 0.5625 -1.90625 0.5625q-1.0625 0 -2.015625 -0.609375q-0.9375 -0.609375 -1.46875 -1.75q-0.515625 -1.140625 -0.515625 -2.578125q0 -1.8125 0.53125 -3.046875q0.53125 -1.21875 1.59375 -1.921875q1.0625 -0.6875 2.40625 -0.71875zm-4.296875 18.408134l8.40625 0l0 -1.453125l1.265625 0l0 1.453125l1.03125 0q0.96875 0 1.453125 0.171875q0.640625 0.234375 1.03125 0.828125q0.390625 0.59375 0.390625 1.671875q0 0.6875 -0.15625 1.53125l-1.4375 -0.25q0.09375 -0.5 0.09375 -0.953125q0 -0.75 -0.328125 -1.0625q-0.3125 -0.3125 -1.1875 -0.3125l-0.890625 0l0 1.890625l-1.265625 0l0 -1.890625l-8.40625 0l0 -1.625zm0 4.777054l9.671875 0l0 1.46875l-1.46875 0q1.03125 0.5625 1.359375 1.03125q0.328125 0.484375 0.328125 1.0625q0 0.828125 -0.53125 1.6875l-1.515625 -0.5625q0.359375 -0.609375 0.359375 -1.203125q0 -0.546875 -0.328125 -0.96875q-0.328125 -0.421875 -0.890625 -0.609375q-0.875 -0.28125 -1.921875 -0.28125l-5.0625 0l0 -1.625zm1.1875 12.540802q-0.765625 -0.921875 -1.09375 -1.765625q-0.3125 -0.828125 -0.3125 -1.796875q0 -1.59375 0.78125 -2.453125q0.78125 -0.859375 1.984375 -0.859375q0.71875 0 1.296875 0.328125q0.59375 0.328125 0.9375 0.84375q0.359375 0.53125 0.546875 1.1875q0.125 0.46875 0.25 1.453125q0.234375 1.984375 0.5625 2.921875q0.34375 0.015625 0.421875 0.015625q1.0 0 1.421875 -0.46875q0.546875 -0.625 0.546875 -1.875q0 -1.15625 -0.40625 -1.703125q-0.40625 -0.546875 -1.421875 -0.8125l0.21875 -1.609375q1.015625 0.21875 1.640625 0.71875q0.640625 0.5 0.984375 1.453125q0.34375 0.953125 0.34375 2.1875q0 1.25 -0.296875 2.015625q-0.28125 0.78125 -0.734375 1.140625q-0.4375 0.375 -1.109375 0.515625q-0.421875 0.078125 -1.515625 0.078125l-2.1875 0q-2.28125 0 -2.890625 0.109375q-0.59375 0.109375 -1.15625 0.40625l0 -1.703125q0.515625 -0.265625 1.1875 -0.328125zm3.671875 -0.140625q-0.375 -0.890625 -0.625 -2.671875q-0.140625 -1.015625 -0.328125 -1.4375q-0.1875 -0.421875 -0.53125 -0.65625q-0.34375 -0.21875 -0.78125 -0.21875q-0.65625 0 -1.09375 0.5q-0.4375 0.5 -0.4375 1.453125q0 0.9375 0.40625 1.671875q0.421875 0.75 1.140625 1.09375q0.5625 0.265625 1.640625 0.265625l0.609375 0zm-4.859375 4.203827l9.671875 0l0 1.46875l-1.359375 0q0.71875 0.453125 1.140625 1.203125q0.4375 0.765625 0.4375 1.71875q0 1.078125 -0.453125 1.765625q-0.4375 0.6875 -1.234375 0.96875q1.6875 1.15625 1.6875 2.984375q0 1.453125 -0.796875 2.21875q-0.796875 0.78125 -2.453125 0.78125l-6.640625 0l0 -1.640625l6.09375 0q0.984375 0 1.40625 -0.15625q0.4375 -0.15625 0.703125 -0.578125q0.265625 -0.421875 0.265625 -0.984375q0 -1.015625 -0.6875 -1.6875q-0.671875 -0.671875 -2.15625 -0.671875l-5.625 0l0 -1.640625l6.28125 0q1.09375 0 1.640625 -0.40625q0.546875 -0.40625 0.546875 -1.3125q0 -0.6875 -0.359375 -1.28125q-0.359375 -0.59375 -1.0625 -0.859375q-0.703125 -0.25 -2.03125 -0.25l-5.015625 0l0 -1.640625zm3.109375 22.165802l-0.203125 1.6875q-1.484375 -0.40625 -2.3125 -1.484375q-0.8125 -1.078125 -0.8125 -2.765625q0 -2.125 1.296875 -3.375q1.3125 -1.234375 3.671875 -1.234375q2.453125 0 3.796875 1.25q1.34375 1.265625 1.34375 3.265625q0 1.9375 -1.328125 3.15625q-1.3125 1.234375 -3.703125 1.234375q-0.15625 0 -0.4375 0l0 -7.21875q-1.59375 0.09375 -2.453125 0.90625q-0.84375 0.8125 -0.84375 2.015625q0 0.90625 0.46875 1.546875q0.484375 0.640625 1.515625 1.015625zm2.65625 -5.390625l0 5.40625q1.21875 -0.109375 1.828125 -0.625q0.953125 -0.78125 0.953125 -2.03125q0 -1.125 -0.765625 -1.90625q-0.75 -0.765625 -2.015625 -0.84375z" fill-rule="nonzero"/><path fill="#000000" fill-opacity="0.0" d="m505.95538 265.0l182.80316 0l0 41.448822l-182.80316 0z" fill-rule="evenodd"/><path fill="#000000" d="m525.26605 278.60748l1.796875 0l-4.453125 13.3125l-1.703125 0l-4.4375 -13.3125l1.796875 0l2.6875 8.4375q0.265625 0.828125 0.453125 1.609375q0.1875 0.765625 0.34375 1.4375q0.140625 -0.671875 0.34375 -1.4375q0.21875 -0.78125 0.5 -1.65625l2.671875 -8.390625zm9.109985 13.3125l-4.03125 -11.65625l-0.078125 0q0.0625 0.671875 0.09375 1.328125q0.03125 0.578125 0.046875 1.21875q0.03125 0.625 0.03125 1.140625l0 7.96875l-1.5625 0l0 -13.3125l2.515625 0l3.75 10.859375l0.0625 0l3.765625 -10.859375l2.515625 0l0 13.3125l-1.703125 0l0 -8.078125q0 -0.46875 0.015625 -1.078125q0.03125 -0.625 0.0625 -1.171875q0.03125 -0.65625 0.0625 -1.3125l-0.078125 0l-4.078125 11.640625l-1.390625 0zm10.264343 -1.015625q0 -0.34375 0.078125 -0.578125q0.09375 -0.25 0.25 -0.390625q0.15625 -0.15625 0.359375 -0.21875q0.21875 -0.078125 0.46875 -0.078125q0.234375 0 0.4375 0.078125q0.21875 0.0625 0.375 0.21875q0.15625 0.140625 0.25 0.390625q0.09375 0.234375 0.09375 0.578125q0 0.34375 -0.09375 0.59375q-0.09375 0.234375 -0.25 0.390625q-0.15625 0.15625 -0.375 0.21875q-0.203125 0.078125 -0.4375 0.078125q-0.25 0 -0.46875 -0.078125q-0.203125 -0.0625 -0.359375 -0.21875q-0.15625 -0.15625 -0.25 -0.390625q-0.078125 -0.25 -0.078125 -0.59375zm0 -7.96875q0 -0.359375 0.078125 -0.59375q0.09375 -0.25 0.25 -0.390625q0.15625 -0.15625 0.359375 -0.21875q0.21875 -0.0625 0.46875 -0.0625q0.234375 0 0.4375 0.0625q0.21875 0.0625 0.375 0.21875q0.15625 0.140625 0.25 0.390625q0.09375 0.234375 0.09375 0.59375q0 0.328125 -0.09375 0.5625q-0.09375 0.234375 -0.25 0.390625q-0.15625 0.15625 -0.375 0.234375q-0.203125 0.078125 -0.4375 0.078125q-0.25 0 -0.46875 -0.078125q-0.203125 -0.078125 -0.359375 -0.234375q-0.15625 -0.15625 -0.25 -0.390625q-0.078125 -0.234375 -0.078125 -0.5625zm5.0010986 7.96875q0 -0.34375 0.078125 -0.578125q0.09375 -0.25 0.25 -0.390625q0.15625 -0.15625 0.359375 -0.21875q0.21875 -0.078125 0.46875 -0.078125q0.234375 0 0.4375 0.078125q0.21875 0.0625 0.375 0.21875q0.15625 0.140625 0.25 0.390625q0.09375 0.234375 0.09375 0.578125q0 0.34375 -0.09375 0.59375q-0.09375 0.234375 -0.25 0.390625q-0.15625 0.15625 -0.375 0.21875q-0.203125 0.078125 -0.4375 0.078125q-0.25 0 -0.46875 -0.078125q-0.203125 -0.0625 -0.359375 -0.21875q-0.15625 -0.15625 -0.25 -0.390625q-0.078125 -0.25 -0.078125 -0.59375zm0 -7.96875q0 -0.359375 0.078125 -0.59375q0.09375 -0.25 0.25 -0.390625q0.15625 -0.15625 0.359375 -0.21875q0.21875 -0.0625 0.46875 -0.0625q0.234375 0 0.4375 0.0625q0.21875 0.0625 0.375 0.21875q0.15625 0.140625 0.25 0.390625q0.09375 0.234375 0.09375 0.59375q0 0.328125 -0.09375 0.5625q-0.09375 0.234375 -0.25 0.390625q-0.15625 0.15625 -0.375 0.234375q-0.203125 0.078125 -0.4375 0.078125q-0.25 0 -0.46875 -0.078125q-0.203125 -0.078125 -0.359375 -0.234375q-0.15625 -0.15625 -0.25 -0.390625q-0.078125 -0.234375 -0.078125 -0.5625zm8.266785 7.8125q0.15625 0 0.359375 -0.015625q0.21875 -0.03125 0.40625 -0.046875q0.1875 -0.03125 0.34375 -0.0625q0.171875 -0.046875 0.25 -0.0625l0 1.25q-0.125 0.0625 -0.3125 0.109375q-0.171875 0.046875 -0.390625 0.09375q-0.21875 0.046875 -0.453125 0.0625q-0.234375 0.03125 -0.46875 0.03125q-0.5625 0 -1.046875 -0.15625q-0.484375 -0.140625 -0.84375 -0.484375q-0.34375 -0.359375 -0.546875 -0.96875q-0.1875 -0.609375 -0.1875 -1.53125l0 -5.796875l-1.421875 0l0 -0.734375l1.421875 -0.71875l0.703125 -2.09375l0.953125 0l0 2.296875l2.515625 0l0 1.25l-2.515625 0l0 5.796875q0 0.890625 0.28125 1.34375q0.296875 0.4375 0.953125 0.4375zm11.44696 -3.84375q0 1.25 -0.3125 2.21875q-0.296875 0.96875 -0.875 1.625q-0.5625 0.65625 -1.375 1.015625q-0.796875 0.34375 -1.8125 0.34375q-0.9375 0 -1.734375 -0.34375q-0.796875 -0.359375 -1.375 -1.015625q-0.578125 -0.65625 -0.90625 -1.625q-0.3125 -0.96875 -0.3125 -2.21875q0 -1.25 0.296875 -2.203125q0.3125 -0.96875 0.875 -1.625q0.5625 -0.65625 1.375 -1.0q0.828125 -0.34375 1.828125 -0.34375q0.9375 0 1.734375 0.34375q0.796875 0.34375 1.375 1.0q0.578125 0.65625 0.890625 1.625q0.328125 0.953125 0.328125 2.203125zm-7.0 0q0 1.90625 0.625 2.875q0.625 0.953125 2.03125 0.953125q1.40625 0 2.015625 -0.953125q0.625 -0.96875 0.625 -2.875q0 -1.90625 -0.625 -2.84375q-0.625 -0.953125 -2.03125 -0.953125q-1.40625 0 -2.03125 0.953125q-0.609375 0.9375 -0.609375 2.84375zm14.142456 5.203125q-0.546875 0 -0.984375 -0.125q-0.4375 -0.109375 -0.796875 -0.3125q-0.34375 -0.203125 -0.609375 -0.453125q-0.265625 -0.265625 -0.46875 -0.5625l-0.109375 0q0.015625 0.3125 0.046875 0.59375q0.015625 0.234375 0.03125 0.484375q0.03125 0.25 0.03125 0.390625l0 4.28125l-1.671875 0l0 -14.484375l1.359375 0l0.234375 1.34375l0.078125 0q0.203125 -0.3125 0.46875 -0.59375q0.265625 -0.28125 0.609375 -0.484375q0.359375 -0.203125 0.796875 -0.328125q0.4375 -0.125 0.984375 -0.125q0.84375 0 1.546875 0.328125q0.703125 0.328125 1.203125 0.984375q0.5 0.65625 0.765625 1.625q0.28125 0.953125 0.28125 2.234375q0 1.28125 -0.28125 2.25q-0.265625 0.96875 -0.765625 1.625q-0.5 0.65625 -1.203125 1.0q-0.703125 0.328125 -1.546875 0.328125zm-0.328125 -9.0q-0.6875 0 -1.171875 0.21875q-0.46875 0.203125 -0.765625 0.640625q-0.296875 0.421875 -0.4375 1.0625q-0.140625 0.625 -0.15625 1.5l0 0.375q0 0.921875 0.109375 1.640625q0.125 0.703125 0.421875 1.203125q0.296875 0.484375 0.78125 0.734375q0.5 0.25 1.234375 0.25q1.234375 0 1.8125 -0.984375q0.578125 -1.0 0.578125 -2.859375q0 -1.90625 -0.578125 -2.84375q-0.578125 -0.9375 -1.828125 -0.9375zm13.8845215 8.8125l-6.921875 0l0 -13.3125l6.921875 0l0 1.484375l-5.234375 0l0 4.125l4.875 0l0 1.46875l-4.875 0l0 4.734375l5.234375 0l0 1.5zm8.941101 0l0 -6.4375q0 -1.1875 -0.484375 -1.78125q-0.46875 -0.59375 -1.484375 -0.59375q-0.734375 0 -1.234375 0.25q-0.5 0.234375 -0.8125 0.703125q-0.3125 0.453125 -0.4375 1.125q-0.125 0.671875 -0.125 1.546875l0 5.1875l-1.671875 0l0 -10.0l1.359375 0l0.234375 1.34375l0.09375 0q0.21875 -0.390625 0.53125 -0.671875q0.328125 -0.296875 0.6875 -0.484375q0.375 -0.1875 0.796875 -0.28125q0.421875 -0.09375 0.859375 -0.09375q1.671875 0 2.5 0.875q0.84375 0.875 0.84375 2.78125l0 6.53125l-1.65625 0zm7.767273 -1.171875q0.15625 0 0.359375 -0.015625q0.21875 -0.03125 0.40625 -0.046875q0.1875 -0.03125 0.34375 -0.0625q0.171875 -0.046875 0.25 -0.0625l0 1.25q-0.125 0.0625 -0.3125 0.109375q-0.171875 0.046875 -0.390625 0.09375q-0.21875 0.046875 -0.453125 0.0625q-0.234375 0.03125 -0.46875 0.03125q-0.5625 0 -1.046875 -0.15625q-0.484375 -0.140625 -0.84375 -0.484375q-0.34375 -0.359375 -0.546875 -0.96875q-0.1875 -0.609375 -0.1875 -1.53125l0 -5.796875l-1.421875 0l0 -0.734375l1.421875 -0.71875l0.703125 -2.09375l0.953125 0l0 2.296875l2.515625 0l0 1.25l-2.515625 0l0 5.796875q0 0.890625 0.28125 1.34375q0.296875 0.4375 0.953125 0.4375zm7.6188965 -9.015625q0.265625 0 0.59375 0.03125q0.328125 0.015625 0.5625 0.0625l-0.21875 1.53125q-0.25 -0.046875 -0.515625 -0.078125q-0.265625 -0.03125 -0.5 -0.03125q-0.578125 0 -1.0625 0.234375q-0.46875 0.234375 -0.8125 0.671875q-0.34375 0.421875 -0.53125 1.03125q-0.171875 0.609375 -0.171875 1.34375l0 5.390625l-1.671875 0l0 -10.0l1.359375 0l0.203125 1.828125l0.0625 0q0.234375 -0.390625 0.484375 -0.75q0.265625 -0.375 0.578125 -0.640625q0.328125 -0.28125 0.734375 -0.453125q0.40625 -0.171875 0.90625 -0.171875zm1.6299438 0.1875l1.71875 0l1.953125 5.578125q0.140625 0.375 0.265625 0.78125q0.125 0.390625 0.234375 0.796875q0.125 0.390625 0.203125 0.765625q0.09375 0.375 0.125 0.6875l0.046875 0q0.046875 -0.21875 0.140625 -0.609375q0.109375 -0.390625 0.234375 -0.828125q0.125 -0.453125 0.25 -0.875q0.140625 -0.4375 0.234375 -0.734375l1.8125 -5.5625l1.71875 0l-3.953125 11.296875q-0.265625 0.75 -0.5625 1.328125q-0.28125 0.59375 -0.6875 1.0q-0.390625 0.40625 -0.921875 0.625q-0.515625 0.234375 -1.25 0.234375q-0.46875 0 -0.828125 -0.0625q-0.34375 -0.046875 -0.578125 -0.09375l0 -1.328125q0.1875 0.046875 0.46875 0.078125q0.296875 0.03125 0.625 0.03125q0.4375 0 0.75 -0.109375q0.3125 -0.09375 0.546875 -0.296875q0.25 -0.203125 0.40625 -0.5q0.171875 -0.28125 0.3125 -0.65625l0.515625 -1.453125l-3.78125 -10.09375zm12.524841 10.0l-1.6875 0l0 -13.3125l6.921875 0l0 1.484375l-5.234375 0l0 4.703125l4.875 0l0 1.5l-4.875 0l0 5.625zm11.570435 -10.1875q0.265625 0 0.59375 0.03125q0.328125 0.015625 0.5625 0.0625l-0.21875 1.53125q-0.25 -0.046875 -0.515625 -0.078125q-0.265625 -0.03125 -0.5 -0.03125q-0.578125 0 -1.0625 0.234375q-0.46875 0.234375 -0.8125 0.671875q-0.34375 0.421875 -0.53125 1.03125q-0.171875 0.609375 -0.171875 1.34375l0 5.390625l-1.671875 0l0 -10.0l1.359375 0l0.203125 1.828125l0.0625 0q0.234375 -0.390625 0.484375 -0.75q0.265625 -0.375 0.578125 -0.640625q0.328125 -0.28125 0.734375 -0.453125q0.40625 -0.171875 0.90625 -0.171875zm8.754944 10.1875l-0.328125 -1.390625l-0.078125 0q-0.296875 0.421875 -0.609375 0.71875q-0.296875 0.296875 -0.65625 0.484375q-0.34375 0.1875 -0.78125 0.28125q-0.4375 0.09375 -1.015625 0.09375q-0.625 0 -1.15625 -0.1875q-0.53125 -0.171875 -0.921875 -0.53125q-0.375 -0.375 -0.59375 -0.9375q-0.21875 -0.5625 -0.21875 -1.328125q0 -1.5 1.046875 -2.296875q1.046875 -0.796875 3.203125 -0.875l1.671875 -0.0625l0 -0.625q0 -0.609375 -0.140625 -1.015625q-0.125 -0.421875 -0.375 -0.671875q-0.25 -0.25 -0.625 -0.359375q-0.359375 -0.109375 -0.828125 -0.109375q-0.765625 0 -1.421875 0.21875q-0.640625 0.21875 -1.234375 0.53125l-0.59375 -1.25q0.671875 -0.359375 1.5 -0.609375q0.84375 -0.265625 1.75 -0.265625q0.921875 0 1.59375 0.1875q0.6875 0.1875 1.125 0.59375q0.453125 0.40625 0.671875 1.03125q0.21875 0.625 0.21875 1.53125l0 6.84375l-1.203125 0zm-3.03125 -1.15625q0.546875 0 1.015625 -0.171875q0.484375 -0.171875 0.828125 -0.515625q0.34375 -0.359375 0.53125 -0.890625q0.203125 -0.53125 0.203125 -1.25l0 -0.90625l-1.296875 0.0625q-0.828125 0.03125 -1.390625 0.1875q-0.546875 0.140625 -0.875 0.40625q-0.328125 0.25 -0.484375 0.625q-0.140625 0.359375 -0.140625 0.828125q0 0.84375 0.4375 1.234375q0.453125 0.390625 1.171875 0.390625zm19.277039 1.15625l0 -6.4375q0 -1.1875 -0.453125 -1.78125q-0.453125 -0.59375 -1.40625 -0.59375q-0.671875 0 -1.140625 0.21875q-0.453125 0.21875 -0.75 0.640625q-0.296875 0.40625 -0.4375 1.015625q-0.140625 0.609375 -0.140625 1.421875l0 5.515625l-1.671875 0l0 -6.4375q0 -1.1875 -0.453125 -1.78125q-0.4375 -0.59375 -1.390625 -0.59375q-0.703125 0 -1.1875 0.25q-0.46875 0.234375 -0.765625 0.703125q-0.28125 0.453125 -0.40625 1.125q-0.109375 0.671875 -0.109375 1.546875l0 5.1875l-1.671875 0l0 -10.0l1.359375 0l0.234375 1.34375l0.09375 0q0.21875 -0.390625 0.515625 -0.671875q0.296875 -0.296875 0.65625 -0.484375q0.359375 -0.1875 0.765625 -0.28125q0.40625 -0.09375 0.828125 -0.09375q1.09375 0 1.8125 0.40625q0.734375 0.40625 1.078125 1.25l0.0625 0q0.25 -0.421875 0.578125 -0.734375q0.328125 -0.3125 0.71875 -0.515625q0.40625 -0.203125 0.84375 -0.296875q0.4375 -0.109375 0.890625 -0.109375q1.59375 0 2.390625 0.875q0.8125 0.875 0.8125 2.78125l0 6.53125l-1.65625 0zm8.684692 0.1875q-1.0 0 -1.828125 -0.328125q-0.828125 -0.34375 -1.421875 -0.984375q-0.59375 -0.65625 -0.921875 -1.609375q-0.328125 -0.96875 -0.328125 -2.1875q0 -1.25 0.296875 -2.21875q0.296875 -0.96875 0.84375 -1.640625q0.546875 -0.6875 1.3125 -1.046875q0.765625 -0.359375 1.6875 -0.359375q0.890625 0 1.609375 0.328125q0.71875 0.328125 1.21875 0.921875q0.515625 0.578125 0.78125 1.40625q0.265625 0.8125 0.265625 1.8125l0 1.03125l-6.3125 0q0.046875 1.765625 0.75 2.59375q0.703125 0.828125 2.078125 0.828125q0.453125 0 0.84375 -0.046875q0.40625 -0.046875 0.765625 -0.125q0.375 -0.09375 0.71875 -0.21875q0.359375 -0.140625 0.703125 -0.296875l0 1.46875q-0.359375 0.171875 -0.71875 0.3125q-0.34375 0.125 -0.71875 0.203125q-0.359375 0.078125 -0.765625 0.109375q-0.390625 0.046875 -0.859375 0.046875zm-0.40625 -9.0q-1.03125 0 -1.640625 0.71875q-0.609375 0.703125 -0.703125 2.0625l4.484375 0q0 -0.625 -0.125 -1.125q-0.125 -0.515625 -0.390625 -0.875q-0.25 -0.375 -0.65625 -0.578125q-0.40625 -0.203125 -0.96875 -0.203125z" fill-rule="nonzero"/><path fill="#000000" fill-opacity="0.0" d="m725.19946 265.0l182.80316 0l0 41.448822l-182.80316 0z" fill-rule="evenodd"/><path fill="#000000" d="m750.96423 278.60748l1.796875 0l-4.453125 13.3125l-1.703125 0l-4.4375 -13.3125l1.796875 0l2.6875 8.4375q0.265625 0.828125 0.453125 1.609375q0.1875 0.765625 0.34375 1.4375q0.140625 -0.671875 0.34375 -1.4375q0.21875 -0.78125 0.5 -1.65625l2.671875 -8.390625zm9.109985 13.3125l-4.03125 -11.65625l-0.078125 0q0.0625 0.671875 0.09375 1.328125q0.03125 0.578125 0.046875 1.21875q0.03125 0.625 0.03125 1.140625l0 7.96875l-1.5625 0l0 -13.3125l2.515625 0l3.75 10.859375l0.0625 0l3.765625 -10.859375l2.515625 0l0 13.3125l-1.703125 0l0 -8.078125q0 -0.46875 0.015625 -1.078125q0.03125 -0.625 0.0625 -1.171875q0.03125 -0.65625 0.0625 -1.3125l-0.078125 0l-4.078125 11.640625l-1.390625 0zm10.264343 -1.015625q0 -0.34375 0.078125 -0.578125q0.09375 -0.25 0.25 -0.390625q0.15625 -0.15625 0.359375 -0.21875q0.21875 -0.078125 0.46875 -0.078125q0.234375 0 0.4375 0.078125q0.21875 0.0625 0.375 0.21875q0.15625 0.140625 0.25 0.390625q0.09375 0.234375 0.09375 0.578125q0 0.34375 -0.09375 0.59375q-0.09375 0.234375 -0.25 0.390625q-0.15625 0.15625 -0.375 0.21875q-0.203125 0.078125 -0.4375 0.078125q-0.25 0 -0.46875 -0.078125q-0.203125 -0.0625 -0.359375 -0.21875q-0.15625 -0.15625 -0.25 -0.390625q-0.078125 -0.25 -0.078125 -0.59375zm0 -7.96875q0 -0.359375 0.078125 -0.59375q0.09375 -0.25 0.25 -0.390625q0.15625 -0.15625 0.359375 -0.21875q0.21875 -0.0625 0.46875 -0.0625q0.234375 0 0.4375 0.0625q0.21875 0.0625 0.375 0.21875q0.15625 0.140625 0.25 0.390625q0.09375 0.234375 0.09375 0.59375q0 0.328125 -0.09375 0.5625q-0.09375 0.234375 -0.25 0.390625q-0.15625 0.15625 -0.375 0.234375q-0.203125 0.078125 -0.4375 0.078125q-0.25 0 -0.46875 -0.078125q-0.203125 -0.078125 -0.359375 -0.234375q-0.15625 -0.15625 -0.25 -0.390625q-0.078125 -0.234375 -0.078125 -0.5625zm5.0010986 7.96875q0 -0.34375 0.078125 -0.578125q0.09375 -0.25 0.25 -0.390625q0.15625 -0.15625 0.359375 -0.21875q0.21875 -0.078125 0.46875 -0.078125q0.234375 0 0.4375 0.078125q0.21875 0.0625 0.375 0.21875q0.15625 0.140625 0.25 0.390625q0.09375 0.234375 0.09375 0.578125q0 0.34375 -0.09375 0.59375q-0.09375 0.234375 -0.25 0.390625q-0.15625 0.15625 -0.375 0.21875q-0.203125 0.078125 -0.4375 0.078125q-0.25 0 -0.46875 -0.078125q-0.203125 -0.0625 -0.359375 -0.21875q-0.15625 -0.15625 -0.25 -0.390625q-0.078125 -0.25 -0.078125 -0.59375zm0 -7.96875q0 -0.359375 0.078125 -0.59375q0.09375 -0.25 0.25 -0.390625q0.15625 -0.15625 0.359375 -0.21875q0.21875 -0.0625 0.46875 -0.0625q0.234375 0 0.4375 0.0625q0.21875 0.0625 0.375 0.21875q0.15625 0.140625 0.25 0.390625q0.09375 0.234375 0.09375 0.59375q0 0.328125 -0.09375 0.5625q-0.09375 0.234375 -0.25 0.390625q-0.15625 0.15625 -0.375 0.234375q-0.203125 0.078125 -0.4375 0.078125q-0.25 0 -0.46875 -0.078125q-0.203125 -0.078125 -0.359375 -0.234375q-0.15625 -0.15625 -0.25 -0.390625q-0.078125 -0.234375 -0.078125 -0.5625zm8.266785 7.8125q0.15625 0 0.359375 -0.015625q0.21875 -0.03125 0.40625 -0.046875q0.1875 -0.03125 0.34375 -0.0625q0.171875 -0.046875 0.25 -0.0625l0 1.25q-0.125 0.0625 -0.3125 0.109375q-0.171875 0.046875 -0.390625 0.09375q-0.21875 0.046875 -0.453125 0.0625q-0.234375 0.03125 -0.46875 0.03125q-0.5625 0 -1.046875 -0.15625q-0.484375 -0.140625 -0.84375 -0.484375q-0.34375 -0.359375 -0.546875 -0.96875q-0.1875 -0.609375 -0.1875 -1.53125l0 -5.796875l-1.421875 0l0 -0.734375l1.421875 -0.71875l0.703125 -2.09375l0.953125 0l0 2.296875l2.515625 0l0 1.25l-2.515625 0l0 5.796875q0 0.890625 0.28125 1.34375q0.296875 0.4375 0.953125 0.4375zm11.44696 -3.84375q0 1.25 -0.3125 2.21875q-0.296875 0.96875 -0.875 1.625q-0.5625 0.65625 -1.375 1.015625q-0.796875 0.34375 -1.8125 0.34375q-0.9375 0 -1.734375 -0.34375q-0.796875 -0.359375 -1.375 -1.015625q-0.578125 -0.65625 -0.90625 -1.625q-0.3125 -0.96875 -0.3125 -2.21875q0 -1.25 0.296875 -2.203125q0.3125 -0.96875 0.875 -1.625q0.5625 -0.65625 1.375 -1.0q0.828125 -0.34375 1.828125 -0.34375q0.9375 0 1.734375 0.34375q0.796875 0.34375 1.375 1.0q0.578125 0.65625 0.890625 1.625q0.328125 0.953125 0.328125 2.203125zm-7.0 0q0 1.90625 0.625 2.875q0.625 0.953125 2.03125 0.953125q1.40625 0 2.015625 -0.953125q0.625 -0.96875 0.625 -2.875q0 -1.90625 -0.625 -2.84375q-0.625 -0.953125 -2.03125 -0.953125q-1.40625 0 -2.03125 0.953125q-0.609375 0.9375 -0.609375 2.84375zm14.142456 5.203125q-0.546875 0 -0.984375 -0.125q-0.4375 -0.109375 -0.796875 -0.3125q-0.34375 -0.203125 -0.609375 -0.453125q-0.265625 -0.265625 -0.46875 -0.5625l-0.109375 0q0.015625 0.3125 0.046875 0.59375q0.015625 0.234375 0.03125 0.484375q0.03125 0.25 0.03125 0.390625l0 4.28125l-1.671875 0l0 -14.484375l1.359375 0l0.234375 1.34375l0.078125 0q0.203125 -0.3125 0.46875 -0.59375q0.265625 -0.28125 0.609375 -0.484375q0.359375 -0.203125 0.796875 -0.328125q0.4375 -0.125 0.984375 -0.125q0.84375 0 1.546875 0.328125q0.703125 0.328125 1.203125 0.984375q0.5 0.65625 0.765625 1.625q0.28125 0.953125 0.28125 2.234375q0 1.28125 -0.28125 2.25q-0.265625 0.96875 -0.765625 1.625q-0.5 0.65625 -1.203125 1.0q-0.703125 0.328125 -1.546875 0.328125zm-0.328125 -9.0q-0.6875 0 -1.171875 0.21875q-0.46875 0.203125 -0.765625 0.640625q-0.296875 0.421875 -0.4375 1.0625q-0.140625 0.625 -0.15625 1.5l0 0.375q0 0.921875 0.109375 1.640625q0.125 0.703125 0.421875 1.203125q0.296875 0.484375 0.78125 0.734375q0.5 0.25 1.234375 0.25q1.234375 0 1.8125 -0.984375q0.578125 -1.0 0.578125 -2.859375q0 -1.90625 -0.578125 -2.84375q-0.578125 -0.9375 -1.828125 -0.9375zm12.3688965 -3.203125q-0.96875 0 -1.765625 0.375q-0.78125 0.359375 -1.34375 1.0625q-0.5625 0.6875 -0.875 1.6875q-0.296875 0.984375 -0.296875 2.234375q0 1.28125 0.265625 2.28125q0.265625 1.0 0.796875 1.6875q0.546875 0.671875 1.34375 1.03125q0.8125 0.359375 1.875 0.359375q0.8125 0 1.53125 -0.15625q0.734375 -0.171875 1.453125 -0.375l0 1.46875q-0.359375 0.140625 -0.71875 0.25q-0.34375 0.09375 -0.734375 0.15625q-0.390625 0.078125 -0.828125 0.109375q-0.4375 0.03125 -0.984375 0.03125q-1.484375 0 -2.578125 -0.484375q-1.09375 -0.5 -1.8125 -1.40625q-0.71875 -0.90625 -1.0625 -2.171875q-0.34375 -1.265625 -0.34375 -2.796875q0 -1.515625 0.390625 -2.765625q0.40625 -1.265625 1.171875 -2.15625q0.765625 -0.90625 1.90625 -1.40625q1.140625 -0.515625 2.609375 -0.515625q0.984375 0 1.875 0.203125q0.90625 0.203125 1.625 0.59375l-0.71875 1.40625q-0.578125 -0.28125 -1.25 -0.484375q-0.671875 -0.21875 -1.53125 -0.21875zm11.250183 12.015625l-0.328125 -1.390625l-0.078125 0q-0.296875 0.421875 -0.609375 0.71875q-0.296875 0.296875 -0.65625 0.484375q-0.34375 0.1875 -0.78125 0.28125q-0.4375 0.09375 -1.015625 0.09375q-0.625 0 -1.15625 -0.1875q-0.53125 -0.171875 -0.921875 -0.53125q-0.375 -0.375 -0.59375 -0.9375q-0.21875 -0.5625 -0.21875 -1.328125q0 -1.5 1.046875 -2.296875q1.046875 -0.796875 3.203125 -0.875l1.671875 -0.0625l0 -0.625q0 -0.609375 -0.140625 -1.015625q-0.125 -0.421875 -0.375 -0.671875q-0.25 -0.25 -0.625 -0.359375q-0.359375 -0.109375 -0.828125 -0.109375q-0.765625 0 -1.421875 0.21875q-0.640625 0.21875 -1.234375 0.53125l-0.59375 -1.25q0.671875 -0.359375 1.5 -0.609375q0.84375 -0.265625 1.75 -0.265625q0.921875 0 1.59375 0.1875q0.6875 0.1875 1.125 0.59375q0.453125 0.40625 0.671875 1.03125q0.21875 0.625 0.21875 1.53125l0 6.84375l-1.203125 0zm-3.03125 -1.15625q0.546875 0 1.015625 -0.171875q0.484375 -0.171875 0.828125 -0.515625q0.34375 -0.359375 0.53125 -0.890625q0.203125 -0.53125 0.203125 -1.25l0 -0.90625l-1.296875 0.0625q-0.828125 0.03125 -1.390625 0.1875q-0.546875 0.140625 -0.875 0.40625q-0.328125 0.25 -0.484375 0.625q-0.140625 0.359375 -0.140625 0.828125q0 0.84375 0.4375 1.234375q0.453125 0.390625 1.171875 0.390625zm8.964539 1.15625l-1.671875 0l0 -14.171875l1.671875 0l0 14.171875zm4.828064 0l-1.671875 0l0 -14.171875l1.671875 0l0 14.171875zm5.078003 0l-1.6875 0l0 -13.3125l6.921875 0l0 1.484375l-5.234375 0l0 4.703125l4.875 0l0 1.5l-4.875 0l0 5.625zm11.570435 -10.1875q0.265625 0 0.59375 0.03125q0.328125 0.015625 0.5625 0.0625l-0.21875 1.53125q-0.25 -0.046875 -0.515625 -0.078125q-0.265625 -0.03125 -0.5 -0.03125q-0.578125 0 -1.0625 0.234375q-0.46875 0.234375 -0.8125 0.671875q-0.34375 0.421875 -0.53125 1.03125q-0.171875 0.609375 -0.171875 1.34375l0 5.390625l-1.671875 0l0 -10.0l1.359375 0l0.203125 1.828125l0.0625 0q0.234375 -0.390625 0.484375 -0.75q0.265625 -0.375 0.578125 -0.640625q0.328125 -0.28125 0.734375 -0.453125q0.40625 -0.171875 0.90625 -0.171875zm8.754944 10.1875l-0.328125 -1.390625l-0.078125 0q-0.296875 0.421875 -0.609375 0.71875q-0.296875 0.296875 -0.65625 0.484375q-0.34375 0.1875 -0.78125 0.28125q-0.4375 0.09375 -1.015625 0.09375q-0.625 0 -1.15625 -0.1875q-0.53125 -0.171875 -0.921875 -0.53125q-0.375 -0.375 -0.59375 -0.9375q-0.21875 -0.5625 -0.21875 -1.328125q0 -1.5 1.046875 -2.296875q1.046875 -0.796875 3.203125 -0.875l1.671875 -0.0625l0 -0.625q0 -0.609375 -0.140625 -1.015625q-0.125 -0.421875 -0.375 -0.671875q-0.25 -0.25 -0.625 -0.359375q-0.359375 -0.109375 -0.828125 -0.109375q-0.765625 0 -1.421875 0.21875q-0.640625 0.21875 -1.234375 0.53125l-0.59375 -1.25q0.671875 -0.359375 1.5 -0.609375q0.84375 -0.265625 1.75 -0.265625q0.921875 0 1.59375 0.1875q0.6875 0.1875 1.125 0.59375q0.453125 0.40625 0.671875 1.03125q0.21875 0.625 0.21875 1.53125l0 6.84375l-1.203125 0zm-3.03125 -1.15625q0.546875 0 1.015625 -0.171875q0.484375 -0.171875 0.828125 -0.515625q0.34375 -0.359375 0.53125 -0.890625q0.203125 -0.53125 0.203125 -1.25l0 -0.90625l-1.296875 0.0625q-0.828125 0.03125 -1.390625 0.1875q-0.546875 0.140625 -0.875 0.40625q-0.328125 0.25 -0.484375 0.625q-0.140625 0.359375 -0.140625 0.828125q0 0.84375 0.4375 1.234375q0.453125 0.390625 1.171875 0.390625zm19.277039 1.15625l0 -6.4375q0 -1.1875 -0.453125 -1.78125q-0.453125 -0.59375 -1.40625 -0.59375q-0.671875 0 -1.140625 0.21875q-0.453125 0.21875 -0.75 0.640625q-0.296875 0.40625 -0.4375 1.015625q-0.140625 0.609375 -0.140625 1.421875l0 5.515625l-1.671875 0l0 -6.4375q0 -1.1875 -0.453125 -1.78125q-0.4375 -0.59375 -1.390625 -0.59375q-0.703125 0 -1.1875 0.25q-0.46875 0.234375 -0.765625 0.703125q-0.28125 0.453125 -0.40625 1.125q-0.109375 0.671875 -0.109375 1.546875l0 5.1875l-1.671875 0l0 -10.0l1.359375 0l0.234375 1.34375l0.09375 0q0.21875 -0.390625 0.515625 -0.671875q0.296875 -0.296875 0.65625 -0.484375q0.359375 -0.1875 0.765625 -0.28125q0.40625 -0.09375 0.828125 -0.09375q1.09375 0 1.8125 0.40625q0.734375 0.40625 1.078125 1.25l0.0625 0q0.25 -0.421875 0.578125 -0.734375q0.328125 -0.3125 0.71875 -0.515625q0.40625 -0.203125 0.84375 -0.296875q0.4375 -0.109375 0.890625 -0.109375q1.59375 0 2.390625 0.875q0.8125 0.875 0.8125 2.78125l0 6.53125l-1.65625 0zm8.684631 0.1875q-1.0 0 -1.828125 -0.328125q-0.828125 -0.34375 -1.421875 -0.984375q-0.59375 -0.65625 -0.921875 -1.609375q-0.328125 -0.96875 -0.328125 -2.1875q0 -1.25 0.296875 -2.21875q0.296875 -0.96875 0.84375 -1.640625q0.546875 -0.6875 1.3125 -1.046875q0.765625 -0.359375 1.6875 -0.359375q0.890625 0 1.609375 0.328125q0.71875 0.328125 1.21875 0.921875q0.515625 0.578125 0.78125 1.40625q0.265625 0.8125 0.265625 1.8125l0 1.03125l-6.3125 0q0.046875 1.765625 0.75 2.59375q0.703125 0.828125 2.078125 0.828125q0.453125 0 0.84375 -0.046875q0.40625 -0.046875 0.765625 -0.125q0.375 -0.09375 0.71875 -0.21875q0.359375 -0.140625 0.703125 -0.296875l0 1.46875q-0.359375 0.171875 -0.71875 0.3125q-0.34375 0.125 -0.71875 0.203125q-0.359375 0.078125 -0.765625 0.109375q-0.390625 0.046875 -0.859375 0.046875zm-0.40625 -9.0q-1.03125 0 -1.640625 0.71875q-0.609375 0.703125 -0.703125 2.0625l4.484375 0q0 -0.625 -0.125 -1.125q-0.125 -0.515625 -0.390625 -0.875q-0.25 -0.375 -0.65625 -0.578125q-0.40625 -0.203125 -0.96875 -0.203125z" fill-rule="nonzero"/><path fill="#000000" fill-opacity="0.0" d="m11.0 27.0l974.9921 1.0078735" fill-rule="evenodd"/><path stroke="#000000" stroke-width="2.0" stroke-linejoin="round" stroke-linecap="butt" d="m11.0 27.0l962.9921 0.99546814" fill-rule="evenodd"/><path fill="#000000" stroke="#000000" stroke-width="2.0" stroke-linecap="butt" d="m973.9887 31.298933l9.07959 -3.2940807l-9.072754 -3.3128452z" fill-rule="evenodd"/></g></svg>